<svg id="Layer_1" data-name="Layer 1" xmlns="http://www.w3.org/2000/svg" viewBox="0 0 2881.68 1080.34"><defs><style>.cls-1{fill:#231f20;}</style></defs><path class="cls-1" d="M1522.66,965.54a6.71,6.71,0,1,1,6.41-7A6.72,6.72,0,0,1,1522.66,965.54Z"/><path class="cls-1" d="M1438.46,997.73a6.72,6.72,0,1,1,6.42-7A6.71,6.71,0,0,1,1438.46,997.73Z"/><path class="cls-1" d="M1597.85,900.07a6.71,6.71,0,1,1,6.4-7A6.7,6.7,0,0,1,1597.85,900.07Z"/><path class="cls-1" d="M1732,730.94a6.7,6.7,0,1,1,6.42-7A6.71,6.71,0,0,1,1732,730.94Z"/><path class="cls-1" d="M1666.46,814.61a6.71,6.71,0,1,1,6.4-7A6.71,6.71,0,0,1,1666.46,814.61Z"/><path class="cls-1" d="M893.53,689a6.71,6.71,0,1,1,6.4-7A6.71,6.71,0,0,1,893.53,689Z"/><path class="cls-1" d="M1797,668.53a6.71,6.71,0,1,1,6.4-7A6.72,6.72,0,0,1,1797,668.53Z"/><path class="cls-1" d="M1344.51,991a6.72,6.72,0,1,1,6.4-7A6.72,6.72,0,0,1,1344.51,991Z"/><path class="cls-1" d="M777.65,613.56a6.72,6.72,0,1,1,6.39-7A6.73,6.73,0,0,1,777.65,613.56Z"/><path class="cls-1" d="M1127.67,866a6.72,6.72,0,1,1,6.41-7A6.73,6.73,0,0,1,1127.67,866Z"/><path class="cls-1" d="M1240.28,944.59a6.72,6.72,0,1,1,6.41-7A6.71,6.71,0,0,1,1240.28,944.59Z"/><path class="cls-1" d="M2255.81,592.38a6.71,6.71,0,1,1,6.43-7A6.73,6.73,0,0,1,2255.81,592.38Z"/><path class="cls-1" d="M2364.21,508.62a6.72,6.72,0,1,1,6.39-7A6.74,6.74,0,0,1,2364.21,508.62Z"/><path class="cls-1" d="M2307,553.66a6.72,6.72,0,1,1,6.39-7A6.72,6.72,0,0,1,2307,553.66Z"/><path class="cls-1" d="M2205.38,620.25a6.71,6.71,0,1,1,6.42-7A6.7,6.7,0,0,1,2205.38,620.25Z"/><path class="cls-1" d="M663.75,547.29a6.71,6.71,0,1,1,6.42-7A6.72,6.72,0,0,1,663.75,547.29Z"/><path class="cls-1" d="M1861.31,634.65a6.71,6.71,0,1,1,6.4-7A6.72,6.72,0,0,1,1861.31,634.65Z"/><path class="cls-1" d="M1924.16,624.9a6.71,6.71,0,1,1,6.39-7A6.72,6.72,0,0,1,1924.16,624.9Z"/><path class="cls-1" d="M2153.37,636.13a6.71,6.71,0,1,1,6.4-7A6.71,6.71,0,0,1,2153.37,636.13Z"/><path class="cls-1" d="M1984.56,629.05a6.72,6.72,0,1,1,6.41-7A6.72,6.72,0,0,1,1984.56,629.05Z"/><path class="cls-1" d="M2042.94,636.62a6.71,6.71,0,1,1,6.41-7A6.72,6.72,0,0,1,2042.94,636.62Z"/><path class="cls-1" d="M2099.23,640.58a6.72,6.72,0,1,1,6.41-7A6.71,6.71,0,0,1,2099.23,640.58Z"/><path class="cls-1" d="M1010.62,774.55a6.71,6.71,0,1,1,6.4-7A6.7,6.7,0,0,1,1010.62,774.55Z"/><path class="cls-1" d="M2274.12,589.05a6.7,6.7,0,1,1,6.41-7A6.72,6.72,0,0,1,2274.12,589.05Z"/><path class="cls-1" d="M2224.23,617.72a6.71,6.71,0,1,1,6.41-7A6.71,6.71,0,0,1,2224.23,617.72Z"/><path class="cls-1" d="M2382.85,513.82a6.71,6.71,0,1,1,6.39-7A6.71,6.71,0,0,1,2382.85,513.82Z"/><path class="cls-1" d="M2325.62,553a6.71,6.71,0,1,1,6.41-7A6.74,6.74,0,0,1,2325.62,553Z"/><path class="cls-1" d="M188.53,361.71a6.72,6.72,0,1,1,6.42-7A6.72,6.72,0,0,1,188.53,361.71Z"/><path class="cls-1" d="M553.68,490.23a6.71,6.71,0,1,1,6.42-7A6.72,6.72,0,0,1,553.68,490.23Z"/><path class="cls-1" d="M266.07,380a6.71,6.71,0,1,1,6.41-7A6.72,6.72,0,0,1,266.07,380Z"/><path class="cls-1" d="M120.11,349.2a6.71,6.71,0,1,1,6.42-7A6.72,6.72,0,0,1,120.11,349.2Z"/><path class="cls-1" d="M353,406.55a6.71,6.71,0,1,1,6.42-7A6.71,6.71,0,0,1,353,406.55Z"/><path class="cls-1" d="M449.29,443.1a6.71,6.71,0,1,1,6.41-7A6.72,6.72,0,0,1,449.29,443.1Z"/><circle class="cls-1" cx="424.89" cy="463.07" r="6.71"/><path class="cls-1" d="M2173.73,636.94a6.72,6.72,0,1,1,6.4-7A6.72,6.72,0,0,1,2173.73,636.94Z"/><path class="cls-1" d="M1882.76,613.07a6.71,6.71,0,1,1,6.42-7A6.72,6.72,0,0,1,1882.76,613.07Z"/><path class="cls-1" d="M1947.41,611.47a6.71,6.71,0,1,1,6.4-7A6.71,6.71,0,0,1,1947.41,611.47Z"/><path class="cls-1" d="M1815.77,639.64a6.71,6.71,0,1,1,6.41-7A6.7,6.7,0,0,1,1815.77,639.64Z"/><path class="cls-1" d="M2068.72,630.93a6.71,6.71,0,1,1,6.4-7A6.73,6.73,0,0,1,2068.72,630.93Z"/><path class="cls-1" d="M1747.93,699a6.71,6.71,0,1,1,6.42-7A6.71,6.71,0,0,1,1747.93,699Z"/><path class="cls-1" d="M2009.38,621.14a6.71,6.71,0,1,1,6.41-7A6.72,6.72,0,0,1,2009.38,621.14Z"/><path class="cls-1" d="M1249.41,946.7a6.72,6.72,0,1,1,6.41-7A6.72,6.72,0,0,1,1249.41,946.7Z"/><path class="cls-1" d="M1354.79,991.3a6.71,6.71,0,1,1,6.4-7A6.73,6.73,0,0,1,1354.79,991.3Z"/><path class="cls-1" d="M1449.65,993.55a6.71,6.71,0,1,1,6.4-7A6.72,6.72,0,0,1,1449.65,993.55Z"/><path class="cls-1" d="M1680.14,786a6.71,6.71,0,1,1,6.42-7A6.7,6.7,0,0,1,1680.14,786Z"/><path class="cls-1" d="M1610.3,879.93a6.72,6.72,0,1,1,6.39-7A6.71,6.71,0,0,1,1610.3,879.93Z"/><path class="cls-1" d="M2125.64,633.81a6.71,6.71,0,1,1,6.4-7A6.72,6.72,0,0,1,2125.64,633.81Z"/><path class="cls-1" d="M1534.52,954.36a6.72,6.72,0,1,1,6.41-7A6.72,6.72,0,0,1,1534.52,954.36Z"/><path class="cls-1" d="M2232.13,600.59a6.71,6.71,0,1,1,6.41-7A6.72,6.72,0,0,1,2232.13,600.59Z"/><path class="cls-1" d="M2283.31,561a6.71,6.71,0,1,1,6.41-7A6.73,6.73,0,0,1,2283.31,561Z"/><path class="cls-1" d="M2339.65,509.33a6.71,6.71,0,1,1,6.4-7A6.73,6.73,0,0,1,2339.65,509.33Z"/><path class="cls-1" d="M2180.05,624.59a6.71,6.71,0,1,1,6.42-7A6.71,6.71,0,0,1,2180.05,624.59Z"/><path class="cls-1" d="M1015.28,772a6.72,6.72,0,1,1,6.42-7A6.71,6.71,0,0,1,1015.28,772Z"/><path class="cls-1" d="M1135.09,867a6.72,6.72,0,1,1,6.41-7A6.71,6.71,0,0,1,1135.09,867Z"/><path class="cls-1" d="M431.93,424.53a6.71,6.71,0,1,1,6.41-7A6.72,6.72,0,0,1,431.93,424.53Z"/><path class="cls-1" d="M774.69,603.31a6.71,6.71,0,1,1,6.41-7A6.72,6.72,0,0,1,774.69,603.31Z"/><circle class="cls-1" cx="540.17" cy="466.61" r="6.71"/><path class="cls-1" d="M656,533.56a6.71,6.71,0,1,1,6.4-7A6.72,6.72,0,0,1,656,533.56Z"/><path class="cls-1" d="M894.72,682.38a6.71,6.71,0,1,1,6.42-7A6.71,6.71,0,0,1,894.72,682.38Z"/><path class="cls-1" d="M100.37,335.38a6.71,6.71,0,1,1,6.41-7A6.72,6.72,0,0,1,100.37,335.38Z"/><path class="cls-1" d="M332.77,387.58a6.7,6.7,0,1,1,6.42-7A6.72,6.72,0,0,1,332.77,387.58Z"/><path class="cls-1" d="M44.15,322.2a6.71,6.71,0,1,1,6.42-7A6.72,6.72,0,0,1,44.15,322.2Z"/><path class="cls-1" d="M244.57,361.73a6.71,6.71,0,1,1,6.42-7A6.72,6.72,0,0,1,244.57,361.73Z"/><path class="cls-1" d="M167.54,345.13a6.72,6.72,0,1,1,6.42-7A6.72,6.72,0,0,1,167.54,345.13Z"/><path class="cls-1" d="M1708.73,771.84a6.72,6.72,0,1,1,6.41-7A6.71,6.71,0,0,1,1708.73,771.84Z"/><path class="cls-1" d="M272.23,405.61a6.7,6.7,0,1,1,6.42-7A6.7,6.7,0,0,1,272.23,405.61Z"/><path class="cls-1" d="M65.81,353.59a6.72,6.72,0,1,1,6.41-7A6.72,6.72,0,0,1,65.81,353.59Z"/><path class="cls-1" d="M128.44,369.54a6.72,6.72,0,1,1,6.42-7A6.73,6.73,0,0,1,128.44,369.54Z"/><path class="cls-1" d="M197,385.81a6.72,6.72,0,1,1,6.41-7A6.72,6.72,0,0,1,197,385.81Z"/><path class="cls-1" d="M2350.07,564.92a6.71,6.71,0,1,1,6.4-7A6.73,6.73,0,0,1,2350.07,564.92Z"/><path class="cls-1" d="M2121.47,646.53a6.71,6.71,0,1,1,6.4-7A6.72,6.72,0,0,1,2121.47,646.53Z"/><path class="cls-1" d="M1183.12,916.46a6.71,6.71,0,1,1,6.4-7A6.73,6.73,0,0,1,1183.12,916.46Z"/><path class="cls-1" d="M1287.41,976.34a6.71,6.71,0,1,1,6.42-7A6.7,6.7,0,0,1,1287.41,976.34Z"/><path class="cls-1" d="M1073.28,836.08a6.72,6.72,0,1,1,6.41-7A6.71,6.71,0,0,1,1073.28,836.08Z"/><path class="cls-1" d="M962,753.14a6.7,6.7,0,1,1,6.4-7A6.71,6.71,0,0,1,962,753.14Z"/><path class="cls-1" d="M1469,996.22a6.72,6.72,0,1,1,6.4-7A6.72,6.72,0,0,1,1469,996.22Z"/><path class="cls-1" d="M1383.07,1003.68a6.71,6.71,0,1,1,6.42-7A6.71,6.71,0,0,1,1383.07,1003.68Z"/><path class="cls-1" d="M539.15,505.62a6.71,6.71,0,1,1,6.42-7A6.72,6.72,0,0,1,539.15,505.62Z"/><circle class="cls-1" cx="443.3" cy="457.65" r="6.71" transform="translate(-62.76 844.77) rotate(-83.33)"/><circle class="cls-1" cx="354.14" cy="424.58" r="6.71"/><path class="cls-1" d="M852.18,678.41a6.71,6.71,0,1,1,6.41-7A6.7,6.7,0,0,1,852.18,678.41Z"/><circle class="cls-1" cx="744.31" cy="606.06" r="6.71"/><path class="cls-1" d="M639.79,555.13a6.71,6.71,0,1,1,6.41-7A6.73,6.73,0,0,1,639.79,555.13Z"/><path class="cls-1" d="M2248.67,621.44a6.71,6.71,0,1,1,6.43-7A6.71,6.71,0,0,1,2248.67,621.44Z"/><path class="cls-1" d="M1579.14,936.06a6.71,6.71,0,1,1,6.4-7A6.72,6.72,0,0,1,1579.14,936.06Z"/><path class="cls-1" d="M1030.15,811.17a6.71,6.71,0,1,1,6.41-7A6.72,6.72,0,0,1,1030.15,811.17Z"/><path class="cls-1" d="M1138.22,890.84a6.71,6.71,0,1,1,6.41-7A6.71,6.71,0,0,1,1138.22,890.84Z"/><path class="cls-1" d="M1340,998.76a6.72,6.72,0,1,1,6.41-7A6.72,6.72,0,0,1,1340,998.76Z"/><path class="cls-1" d="M1507.8,984.49a6.71,6.71,0,1,1,6.42-7A6.7,6.7,0,0,1,1507.8,984.49Z"/><path class="cls-1" d="M1428.4,1007.11a6.71,6.71,0,1,1,6.41-7A6.7,6.7,0,0,1,1428.4,1007.11Z"/><path class="cls-1" d="M2298.45,595a6.72,6.72,0,1,1,6.43-7A6.73,6.73,0,0,1,2298.45,595Z"/><path class="cls-1" d="M922.33,734.25a6.71,6.71,0,1,1,6.41-7A6.73,6.73,0,0,1,922.33,734.25Z"/><path class="cls-1" d="M516.41,507.61a6.72,6.72,0,1,1,6.41-7A6.71,6.71,0,0,1,516.41,507.61Z"/><path class="cls-1" d="M612.89,553.06a6.71,6.71,0,1,1,6.42-7A6.73,6.73,0,0,1,612.89,553.06Z"/><path class="cls-1" d="M816.44,665.85a6.71,6.71,0,1,1,6.42-7A6.73,6.73,0,0,1,816.44,665.85Z"/><path class="cls-1" d="M713.11,605.75a6.72,6.72,0,1,1,6.42-7A6.74,6.74,0,0,1,713.11,605.75Z"/><path class="cls-1" d="M1242.85,958.22a6.71,6.71,0,1,1,6.41-7A6.71,6.71,0,0,1,1242.85,958.22Z"/><path class="cls-1" d="M2148.73,656.48a6.72,6.72,0,1,1,6.4-7A6.71,6.71,0,0,1,2148.73,656.48Z"/><path class="cls-1" d="M2097.14,664.31a6.71,6.71,0,1,1,6.41-7A6.72,6.72,0,0,1,2097.14,664.31Z"/><path class="cls-1" d="M2044.28,667.21a6.72,6.72,0,1,1,6.4-7A6.72,6.72,0,0,1,2044.28,667.21Z"/><path class="cls-1" d="M1990.33,667.85a6.71,6.71,0,1,1,6.4-7A6.69,6.69,0,0,1,1990.33,667.85Z"/><path class="cls-1" d="M1546,957.23a6.71,6.71,0,1,1,6.41-7A6.69,6.69,0,0,1,1546,957.23Z"/><path class="cls-1" d="M2199.14,642.24a6.71,6.71,0,1,1,6.42-7A6.71,6.71,0,0,1,2199.14,642.24Z"/><path class="cls-1" d="M1705,802.8a6.72,6.72,0,1,1,6.4-7A6.73,6.73,0,0,1,1705,802.8Z"/><path class="cls-1" d="M1764,744.46a6.71,6.71,0,1,1,6.42-7A6.72,6.72,0,0,1,1764,744.46Z"/><path class="cls-1" d="M1644.16,871a6.71,6.71,0,1,1,6.39-7A6.73,6.73,0,0,1,1644.16,871Z"/><path class="cls-1" d="M1821.93,703.58a6.72,6.72,0,1,1,6.4-7A6.72,6.72,0,0,1,1821.93,703.58Z"/><path class="cls-1" d="M1879,680.25a6.71,6.71,0,1,1,6.39-7A6.73,6.73,0,0,1,1879,680.25Z"/><path class="cls-1" d="M1935.14,670.41a6.72,6.72,0,1,1,6.42-7A6.71,6.71,0,0,1,1935.14,670.41Z"/><circle class="cls-1" cx="551.85" cy="493.59" r="6.71"/><circle class="cls-1" cx="766.64" cy="609.38" r="6.71"/><path class="cls-1" d="M657.68,554a6.73,6.73,0,1,1,6.41-7A6.72,6.72,0,0,1,657.68,554Z"/><path class="cls-1" d="M878.38,686.72a6.71,6.71,0,1,1,6.43-7A6.71,6.71,0,0,1,878.38,686.72Z"/><path class="cls-1" d="M992.07,767.43a6.72,6.72,0,1,1,6.4-7A6.72,6.72,0,0,1,992.07,767.43Z"/><path class="cls-1" d="M1106.38,855a6.71,6.71,0,1,1,6.39-7A6.72,6.72,0,0,1,1106.38,855Z"/><path class="cls-1" d="M274.76,394.35a6.71,6.71,0,1,1,6.43-7A6.72,6.72,0,0,1,274.76,394.35Z"/><path class="cls-1" d="M198.17,375a6.72,6.72,0,1,1,6.42-7A6.73,6.73,0,0,1,198.17,375Z"/><path class="cls-1" d="M129.42,360.25a6.71,6.71,0,1,1,6.42-7A6.72,6.72,0,0,1,129.42,360.25Z"/><path class="cls-1" d="M1217.84,934.62a6.71,6.71,0,1,1,6.42-7A6.7,6.7,0,0,1,1217.84,934.62Z"/><path class="cls-1" d="M452.33,455.89a6.72,6.72,0,1,1,6.41-7A6.72,6.72,0,0,1,452.33,455.89Z"/><path class="cls-1" d="M359.47,420.75a6.71,6.71,0,1,1,6.41-7A6.74,6.74,0,0,1,359.47,420.75Z"/><path class="cls-1" d="M1416,1002.19a6.72,6.72,0,1,1,6.4-7A6.74,6.74,0,0,1,1416,1002.19Z"/><path class="cls-1" d="M1894.68,643.13a6.71,6.71,0,1,1,6.4-7A6.71,6.71,0,0,1,1894.68,643.13Z"/><path class="cls-1" d="M1771.58,705.31a6.71,6.71,0,1,1,6.42-7A6.71,6.71,0,0,1,1771.58,705.31Z"/><path class="cls-1" d="M1833.67,662.53a6.71,6.71,0,1,1,6.41-7A6.72,6.72,0,0,1,1833.67,662.53Z"/><path class="cls-1" d="M1321.66,986.68a6.71,6.71,0,1,1,6.4-7A6.73,6.73,0,0,1,1321.66,986.68Z"/><path class="cls-1" d="M2011.58,643.87a6.72,6.72,0,1,1,6.4-7A6.72,6.72,0,0,1,2011.58,643.87Z"/><path class="cls-1" d="M2067.43,647.71a6.71,6.71,0,1,1,6.42-7A6.73,6.73,0,0,1,2067.43,647.71Z"/><path class="cls-1" d="M1954.05,639.88a6.72,6.72,0,1,1,6.39-7A6.73,6.73,0,0,1,1954.05,639.88Z"/><path class="cls-1" d="M1500.62,980.91a6.7,6.7,0,1,1,6.39-7A6.69,6.69,0,0,1,1500.62,980.91Z"/><path class="cls-1" d="M67.78,346a6.72,6.72,0,1,1,6.41-7A6.73,6.73,0,0,1,67.78,346Z"/><path class="cls-1" d="M1644.64,851.89a6.7,6.7,0,1,1,6.39-7A6.72,6.72,0,0,1,1644.64,851.89Z"/><path class="cls-1" d="M1615.44,893.83a6.7,6.7,0,1,1,6.42-7A6.69,6.69,0,0,1,1615.44,893.83Z"/><path class="cls-1" d="M1576.19,927.44a6.71,6.71,0,1,1,6.41-7A6.72,6.72,0,0,1,1576.19,927.44Z"/><circle class="cls-1" cx="2084.68" cy="649.67" r="6.71"/><path class="cls-1" d="M1975.46,654.31a6.71,6.71,0,1,1,6.43-7A6.72,6.72,0,0,1,1975.46,654.31Z"/><path class="cls-1" d="M2030.9,656.2a6.72,6.72,0,1,1,6.42-7A6.72,6.72,0,0,1,2030.9,656.2Z"/><path class="cls-1" d="M2137.52,651.3a6.71,6.71,0,1,1,6.42-7A6.72,6.72,0,0,1,2137.52,651.3Z"/><circle class="cls-1" cx="2287.82" cy="583.51" r="6.71"/><path class="cls-1" d="M2188.58,638.7a6.71,6.71,0,1,1,6.42-7A6.7,6.7,0,0,1,2188.58,638.7Z"/><path class="cls-1" d="M2238.39,618.07a6.71,6.71,0,1,1,6.42-7A6.7,6.7,0,0,1,2238.39,618.07Z"/><path class="cls-1" d="M1679.36,819.55a6.71,6.71,0,1,1,6.39-7A6.72,6.72,0,0,1,1679.36,819.55Z"/><path class="cls-1" d="M1918.47,656.18a6.71,6.71,0,1,1,6.4-7A6.72,6.72,0,0,1,1918.47,656.18Z"/><path class="cls-1" d="M1740.72,750.32a6.71,6.71,0,1,1,6.42-7A6.7,6.7,0,0,1,1740.72,750.32Z"/><path class="cls-1" d="M1800.92,698.92a6.71,6.71,0,1,1,6.39-7A6.72,6.72,0,0,1,1800.92,698.92Z"/><path class="cls-1" d="M1860.22,668.73a6.72,6.72,0,1,1,6.41-7A6.73,6.73,0,0,1,1860.22,668.73Z"/><path class="cls-1" d="M2339.74,557.22a6.71,6.71,0,1,1,6.42-7A6.72,6.72,0,0,1,2339.74,557.22Z"/><path class="cls-1" d="M60.14,337.32a6.71,6.71,0,1,1,6.42-7A6.72,6.72,0,0,1,60.14,337.32Z"/><path class="cls-1" d="M1653.08,799.69a6.71,6.71,0,1,1,6.41-7A6.71,6.71,0,0,1,1653.08,799.69Z"/><path class="cls-1" d="M2162.91,616.2a6.72,6.72,0,1,1,6.4-7A6.75,6.75,0,0,1,2162.91,616.2Z"/><path class="cls-1" d="M2223.86,588.06a6.72,6.72,0,1,1,6.4-7A6.72,6.72,0,0,1,2223.86,588.06Z"/><path class="cls-1" d="M1808.41,598.08a6.72,6.72,0,1,1,6.42-7A6.72,6.72,0,0,1,1808.41,598.08Z"/><path class="cls-1" d="M1887.16,565.68a6.71,6.71,0,1,1,6.4-7A6.72,6.72,0,0,1,1887.16,565.68Z"/><path class="cls-1" d="M2098.7,614a6.71,6.71,0,1,1,6.42-7A6.72,6.72,0,0,1,2098.7,614Z"/><path class="cls-1" d="M1729.65,682a6.71,6.71,0,1,1,6.4-7A6.71,6.71,0,0,1,1729.65,682Z"/><path class="cls-1" d="M2032.15,595.91a6.71,6.71,0,1,1,6.41-7A6.73,6.73,0,0,1,2032.15,595.91Z"/><path class="cls-1" d="M1962,573.49a6.7,6.7,0,1,1,6.42-7A6.69,6.69,0,0,1,1962,573.49Z"/><path class="cls-1" d="M2283.58,502.7a6.71,6.71,0,1,1,6.41-7A6.71,6.71,0,0,1,2283.58,502.7Z"/><path class="cls-1" d="M362.3,359.66a6.71,6.71,0,1,1,6.41-7A6.72,6.72,0,0,1,362.3,359.66Z"/><path class="cls-1" d="M6.63,67.62a6.71,6.71,0,1,1,6.41-7A6.72,6.72,0,0,1,6.63,67.62Z"/><path class="cls-1" d="M103.76,252.09a6.71,6.71,0,1,1,6.43-7A6.72,6.72,0,0,1,103.76,252.09Z"/><path class="cls-1" d="M10.17,121.33a6.71,6.71,0,1,1,6.42-7A6.71,6.71,0,0,1,10.17,121.33Z"/><path class="cls-1" d="M23.28,7.66a6.74,6.74,0,0,1-7-6.42,6.72,6.72,0,0,1,6.42-7,6.72,6.72,0,0,1,.59,13.42Z"/><path class="cls-1" d="M59.36,212.35a6.71,6.71,0,1,1,6.42-7A6.73,6.73,0,0,1,59.36,212.35Z"/><path class="cls-1" d="M28.67,168.81a6.71,6.71,0,1,1,6.42-7A6.71,6.71,0,0,1,28.67,168.81Z"/><path class="cls-1" d="M1389.9,991.73a6.71,6.71,0,1,1,6.39-7A6.72,6.72,0,0,1,1389.9,991.73Z"/><path class="cls-1" d="M1283.64,958a6.72,6.72,0,1,1,6.4-7A6.72,6.72,0,0,1,1283.64,958Z"/><path class="cls-1" d="M910.49,674.11a6.71,6.71,0,1,1,6.41-7A6.72,6.72,0,0,1,910.49,674.11Z"/><path class="cls-1" d="M1041.78,777.48a6.71,6.71,0,1,1,6.4-7A6.73,6.73,0,0,1,1041.78,777.48Z"/><path class="cls-1" d="M1167.35,880.72a6.71,6.71,0,1,1,6.39-7A6.71,6.71,0,0,1,1167.35,880.72Z"/><path class="cls-1" d="M166.5,286.11a6.71,6.71,0,1,1,6.42-7A6.71,6.71,0,0,1,166.5,286.11Z"/><path class="cls-1" d="M1573.83,908.82a6.7,6.7,0,1,1,6.41-7A6.72,6.72,0,0,1,1573.83,908.82Z"/><path class="cls-1" d="M1486.46,975.86a6.71,6.71,0,1,1,6.4-7A6.71,6.71,0,0,1,1486.46,975.86Z"/><path class="cls-1" d="M252.7,318.32a6.72,6.72,0,1,1,6.42-7A6.72,6.72,0,0,1,252.7,318.32Z"/><path class="cls-1" d="M491.3,417.7a6.71,6.71,0,1,1,6.4-7A6.71,6.71,0,0,1,491.3,417.7Z"/><path class="cls-1" d="M631.64,492.63a6.71,6.71,0,1,1,6.41-7A6.71,6.71,0,0,1,631.64,492.63Z"/><path class="cls-1" d="M773.36,579.25a6.71,6.71,0,1,1,6.4-7A6.73,6.73,0,0,1,773.36,579.25Z"/><path class="cls-1" d="M2223,578.53a6.71,6.71,0,1,1,6.41-7A6.72,6.72,0,0,1,2223,578.53Z"/><path class="cls-1" d="M2154.12,612.91a6.71,6.71,0,1,1,6.41-7A6.73,6.73,0,0,1,2154.12,612.91Z"/><circle class="cls-1" cx="2083.18" cy="596.45" r="6.71"/><path class="cls-1" d="M2011.61,577.93a6.71,6.71,0,1,1,6.41-7A6.7,6.7,0,0,1,2011.61,577.93Z"/><path class="cls-1" d="M2302.58,436.35a6.71,6.71,0,1,1,6.42-7A6.72,6.72,0,0,1,2302.58,436.35Z"/><path class="cls-1" d="M1769.48,618.3a6.71,6.71,0,1,1,6.39-7A6.73,6.73,0,0,1,1769.48,618.3Z"/><path class="cls-1" d="M1607,862.86a6.71,6.71,0,1,1,6.42-7A6.72,6.72,0,0,1,1607,862.86Z"/><path class="cls-1" d="M1687.79,733.93a6.71,6.71,0,1,1,6.42-7A6.72,6.72,0,0,1,1687.79,733.93Z"/><path class="cls-1" d="M1853.92,557.22a6.72,6.72,0,1,1,6.39-7A6.73,6.73,0,0,1,1853.92,557.22Z"/><path class="cls-1" d="M1520.27,954.44a6.71,6.71,0,1,1,6.39-7A6.72,6.72,0,0,1,1520.27,954.44Z"/><path class="cls-1" d="M1935.8,552.88a6.71,6.71,0,1,1,6.42-7A6.72,6.72,0,0,1,1935.8,552.88Z"/><path class="cls-1" d="M73.16,91.14a6.71,6.71,0,1,1,6.41-7A6.72,6.72,0,0,1,73.16,91.14Z"/><path class="cls-1" d="M196.75,32a6.72,6.72,0,1,1,6.42-7A6.75,6.75,0,0,1,196.75,32Z"/><path class="cls-1" d="M1425,990.46a6.71,6.71,0,1,1,6.42-7A6.7,6.7,0,0,1,1425,990.46Z"/><path class="cls-1" d="M61.22,158.13a6.71,6.71,0,1,1,6.42-7A6.7,6.7,0,0,1,61.22,158.13Z"/><path class="cls-1" d="M950.27,698.34a6.72,6.72,0,1,1,6.4-7A6.71,6.71,0,0,1,950.27,698.34Z"/><path class="cls-1" d="M651.89,495a6.71,6.71,0,1,1,6.42-7A6.72,6.72,0,0,1,651.89,495Z"/><path class="cls-1" d="M806.55,593.69a6.71,6.71,0,1,1,6.42-7A6.71,6.71,0,0,1,806.55,593.69Z"/><path class="cls-1" d="M1321,973.12a6.71,6.71,0,1,1,6.42-7A6.69,6.69,0,0,1,1321,973.12Z"/><path class="cls-1" d="M1207.82,908.31a6.72,6.72,0,1,1,6.4-7A6.73,6.73,0,0,1,1207.82,908.31Z"/><path class="cls-1" d="M1083.88,808.47a6.71,6.71,0,1,1,6.39-7A6.72,6.72,0,0,1,1083.88,808.47Z"/><path class="cls-1" d="M145.65,253.22a6.71,6.71,0,1,1,6.39-7A6.72,6.72,0,0,1,145.65,253.22Z"/><path class="cls-1" d="M89.89,210.28a6.71,6.71,0,1,1,6.4-7A6.72,6.72,0,0,1,89.89,210.28Z"/><path class="cls-1" d="M349.8,340.25a6.71,6.71,0,1,1,6.4-7A6.73,6.73,0,0,1,349.8,340.25Z"/><path class="cls-1" d="M494.64,407.71a6.71,6.71,0,1,1,6.4-7A6.7,6.7,0,0,1,494.64,407.71Z"/><path class="cls-1" d="M231.63,292.66a6.71,6.71,0,1,1,6.39-7A6.72,6.72,0,0,1,231.63,292.66Z"/><path class="cls-1" d="M1003.13,756.58a6.71,6.71,0,1,1,6.42-7A6.7,6.7,0,0,1,1003.13,756.58Z"/><path class="cls-1" d="M2087.78,625.82a6.72,6.72,0,1,1,6.4-7A6.74,6.74,0,0,1,2087.78,625.82Z"/><path class="cls-1" d="M2026.9,614.22a6.71,6.71,0,1,1,6.4-7A6.71,6.71,0,0,1,2026.9,614.22Z"/><path class="cls-1" d="M2145.83,627.15a6.71,6.71,0,1,1,6.44-7A6.71,6.71,0,0,1,2145.83,627.15Z"/><path class="cls-1" d="M2253.86,576.91a6.71,6.71,0,1,1,6.4-7A6.71,6.71,0,0,1,2253.86,576.91Z"/><path class="cls-1" d="M1963.19,600.18a6.71,6.71,0,1,1,6.41-7A6.71,6.71,0,0,1,1963.19,600.18Z"/><path class="cls-1" d="M2201.18,612.14a6.71,6.71,0,1,1,6.42-7A6.73,6.73,0,0,1,2201.18,612.14Z"/><path class="cls-1" d="M1826,617.76a6.72,6.72,0,1,1,6.4-7A6.72,6.72,0,0,1,1826,617.76Z"/><path class="cls-1" d="M1896,595.78a6.72,6.72,0,1,1,6.4-7A6.72,6.72,0,0,1,1896,595.78Z"/><path class="cls-1" d="M1612.51,871.4a6.71,6.71,0,1,1,6.4-7A6.71,6.71,0,0,1,1612.51,871.4Z"/><path class="cls-1" d="M1684.43,769.76a6.72,6.72,0,1,1,6.41-7A6.73,6.73,0,0,1,1684.43,769.76Z"/><path class="cls-1" d="M1754.9,677.32a6.71,6.71,0,1,1,6.4-7A6.71,6.71,0,0,1,1754.9,677.32Z"/><path class="cls-1" d="M2308.44,519.93a6.71,6.71,0,1,1,6.41-7A6.7,6.7,0,0,1,2308.44,519.93Z"/><path class="cls-1" d="M2381.27,455.34a6.71,6.71,0,1,1,6.42-7A6.72,6.72,0,0,1,2381.27,455.34Z"/><path class="cls-1" d="M1534.5,951.41a6.71,6.71,0,1,1,6.42-7A6.72,6.72,0,0,1,1534.5,951.41Z"/><path class="cls-1" d="M31.3,266.72a6.71,6.71,0,1,1,6.41-7A6.72,6.72,0,0,1,31.3,266.72Z"/><path class="cls-1" d="M76.23,302.38a6.72,6.72,0,1,1,6.42-7A6.72,6.72,0,0,1,76.23,302.38Z"/><path class="cls-1" d="M1447.36,992.06a6.72,6.72,0,1,1,6.42-7A6.72,6.72,0,0,1,1447.36,992.06Z"/><path class="cls-1" d="M1125.74,855.26a6.71,6.71,0,1,1,6.41-7A6.71,6.71,0,0,1,1125.74,855.26Z"/><path class="cls-1" d="M878.83,664.27a6.72,6.72,0,1,1,6.4-7A6.72,6.72,0,0,1,878.83,664.27Z"/><path class="cls-1" d="M135.41,321.87a6.71,6.71,0,1,1,6.41-7A6.72,6.72,0,0,1,135.41,321.87Z"/><path class="cls-1" d="M1350.34,988.14a6.72,6.72,0,1,1,6.42-7A6.72,6.72,0,0,1,1350.34,988.14Z"/><path class="cls-1" d="M1242.87,939.81a6.72,6.72,0,1,1,6.4-7A6.73,6.73,0,0,1,1242.87,939.81Z"/><path class="cls-1" d="M754,582.45a6.72,6.72,0,1,1,6.41-7A6.72,6.72,0,0,1,754,582.45Z"/><path class="cls-1" d="M209,338.57a6.72,6.72,0,1,1,6.42-7A6.72,6.72,0,0,1,209,338.57Z"/><path class="cls-1" d="M296,362.85a6.71,6.71,0,1,1,6.42-7A6.72,6.72,0,0,1,296,362.85Z"/><path class="cls-1" d="M508.89,447.75a6.71,6.71,0,1,1,6.42-7A6.7,6.7,0,0,1,508.89,447.75Z"/><path class="cls-1" d="M396.65,398.65a6.71,6.71,0,1,1,6.41-7A6.72,6.72,0,0,1,396.65,398.65Z"/><path class="cls-1" d="M629.53,509.72a6.71,6.71,0,1,1,6.4-7A6.73,6.73,0,0,1,629.53,509.72Z"/><circle class="cls-1" cx="2098.33" cy="613.79" r="6.71"/><path class="cls-1" d="M2270.51,546.1a6.71,6.71,0,1,1,6.4-7A6.71,6.71,0,0,1,2270.51,546.1Z"/><path class="cls-1" d="M2158.9,621a6.71,6.71,0,1,1,6.41-7A6.72,6.72,0,0,1,2158.9,621Z"/><path class="cls-1" d="M2216.12,599.57a6.71,6.71,0,1,1,6.39-7A6.72,6.72,0,0,1,2216.12,599.57Z"/><path class="cls-1" d="M2337.35,464.68a6.72,6.72,0,1,1,6.42-7A6.71,6.71,0,0,1,2337.35,464.68Z"/><path class="cls-1" d="M2035.56,606.65a6.71,6.71,0,1,1,6.4-7A6.72,6.72,0,0,1,2035.56,606.65Z"/><path class="cls-1" d="M1825,602.7a6.72,6.72,0,1,1,6.41-7A6.72,6.72,0,0,1,1825,602.7Z"/><path class="cls-1" d="M1750.17,668.86a6.7,6.7,0,1,1,6.43-7A6.7,6.7,0,0,1,1750.17,668.86Z"/><path class="cls-1" d="M1969.19,588.43a6.72,6.72,0,1,1,6.41-7A6.73,6.73,0,0,1,1969.19,588.43Z"/><path class="cls-1" d="M1898.93,580.18a6.71,6.71,0,1,1,6.43-7A6.72,6.72,0,0,1,1898.93,580.18Z"/><path class="cls-1" d="M1676.67,771.51a6.72,6.72,0,1,1,6.41-7A6.72,6.72,0,0,1,1676.67,771.51Z"/><circle class="cls-1" cx="14.7" cy="197.34" r="6.71"/><path class="cls-1" d="M159.78,306.2a6.72,6.72,0,1,1,6.42-7A6.72,6.72,0,0,1,159.78,306.2Z"/><path class="cls-1" d="M51.58,243.54a6.71,6.71,0,1,1,6.41-7A6.72,6.72,0,0,1,51.58,243.54Z"/><path class="cls-1" d="M97.82,279.17a6.72,6.72,0,1,1,6.42-7A6.72,6.72,0,0,1,97.82,279.17Z"/><path class="cls-1" d="M452.45,410.68a6.71,6.71,0,1,1,6.41-7A6.7,6.7,0,0,1,452.45,410.68Z"/><path class="cls-1" d="M1217,920.17a6.71,6.71,0,1,1,6.4-7A6.7,6.7,0,0,1,1217,920.17Z"/><path class="cls-1" d="M1328.27,979.41a6.71,6.71,0,1,1,6.41-7A6.7,6.7,0,0,1,1328.27,979.41Z"/><path class="cls-1" d="M1096.55,827.31a6.72,6.72,0,1,1,6.39-7A6.72,6.72,0,0,1,1096.55,827.31Z"/><path class="cls-1" d="M1429.15,993.12a6.71,6.71,0,1,1,6.42-7A6.72,6.72,0,0,1,1429.15,993.12Z"/><path class="cls-1" d="M970.51,725.41a6.7,6.7,0,1,1,6.41-7A6.69,6.69,0,0,1,970.51,725.41Z"/><path class="cls-1" d="M240.08,330.85a6.72,6.72,0,1,1,6.42-7A6.7,6.7,0,0,1,240.08,330.85Z"/><path class="cls-1" d="M1520.16,959a6.72,6.72,0,1,1,6.39-7A6.72,6.72,0,0,1,1520.16,959Z"/><path class="cls-1" d="M338.21,363.77a6.71,6.71,0,1,1,6.41-7A6.71,6.71,0,0,1,338.21,363.77Z"/><path class="cls-1" d="M841.64,631.83a6.72,6.72,0,1,1,6.42-7A6.71,6.71,0,0,1,841.64,631.83Z"/><path class="cls-1" d="M1601.74,879.86a6.71,6.71,0,1,1,6.42-7A6.7,6.7,0,0,1,1601.74,879.86Z"/><path class="cls-1" d="M710.11,547.54a6.71,6.71,0,1,1,6.41-7A6.71,6.71,0,0,1,710.11,547.54Z"/><path class="cls-1" d="M578.76,472.85a6.71,6.71,0,1,1,6.4-7A6.72,6.72,0,0,1,578.76,472.85Z"/><path class="cls-1" d="M1795.91,774.82a6.71,6.71,0,1,1,6.4-7A6.72,6.72,0,0,1,1795.91,774.82Z"/><path class="cls-1" d="M431.9,646.06a6.71,6.71,0,1,1,6.42-7A6.73,6.73,0,0,1,431.9,646.06Z"/><path class="cls-1" d="M759,778.69a6.71,6.71,0,1,1,6.42-7A6.71,6.71,0,0,1,759,778.69Z"/><path class="cls-1" d="M511.61,674.13a6.71,6.71,0,1,1,6.42-7A6.73,6.73,0,0,1,511.61,674.13Z"/><path class="cls-1" d="M353.53,621.1a6.72,6.72,0,1,1,6.41-7A6.73,6.73,0,0,1,353.53,621.1Z"/><circle class="cls-1" cx="675.06" cy="733.74" r="6.71"/><path class="cls-1" d="M592.85,705.58a6.71,6.71,0,1,1,6.41-7A6.73,6.73,0,0,1,592.85,705.58Z"/><circle class="cls-1" cx="276.37" cy="592.33" r="6.71"/><path class="cls-1" d="M1604.11,1008.6a6.72,6.72,0,1,1,6.52-7,6.12,6.12,0,0,1-1,3.48l-5.42,3.45-.23.06.12,0Z"/><path class="cls-1" d="M201.24,579.6a6.71,6.71,0,1,1,6.42-7A6.71,6.71,0,0,1,201.24,579.6Z"/><path class="cls-1" d="M127.09,562.25a6.71,6.71,0,1,1,6.42-7A6.71,6.71,0,0,1,127.09,562.25Z"/><path class="cls-1" d="M54.32,546.62a6.71,6.71,0,1,1,6.42-7A6.72,6.72,0,0,1,54.32,546.62Z"/><path class="cls-1" d="M1481.81,1054a6.7,6.7,0,1,1,6.42-7A6.7,6.7,0,0,1,1481.81,1054Z"/><path class="cls-1" d="M1414.56,1061.64a6.71,6.71,0,1,1,6.4-7A6.71,6.71,0,0,1,1414.56,1061.64Z"/><path class="cls-1" d="M1544.8,1035.33a6.71,6.71,0,1,1,6.39-7A6.72,6.72,0,0,1,1544.8,1035.33Z"/><path class="cls-1" d="M1468.43,1067.58a6.71,6.71,0,1,1,6.42-7A6.69,6.69,0,0,1,1468.43,1067.58Z"/><path class="cls-1" d="M1342.45,1056a6.72,6.72,0,1,1,6.4-7A6.73,6.73,0,0,1,1342.45,1056Z"/><path class="cls-1" d="M1265.86,1036.34a6.71,6.71,0,1,1,6.4-7A6.7,6.7,0,0,1,1265.86,1036.34Z"/><circle class="cls-1" cx="843.43" cy="813.92" r="6.71"/><path class="cls-1" d="M929.37,866a6.71,6.71,0,1,1,6.41-7A6.73,6.73,0,0,1,929.37,866Z"/><path class="cls-1" d="M1015.4,913.79a6.71,6.71,0,1,1,6.41-7A6.72,6.72,0,0,1,1015.4,913.79Z"/><path class="cls-1" d="M1101.14,961.23a6.71,6.71,0,1,1,6.42-7A6.72,6.72,0,0,1,1101.14,961.23Z"/><path class="cls-1" d="M1185,1003.6a6.71,6.71,0,1,1,6.39-7A6.71,6.71,0,0,1,1185,1003.6Z"/><path class="cls-1" d="M279.69,630.56a6.71,6.71,0,1,1,6.42-7A6.72,6.72,0,0,1,279.69,630.56Z"/><path class="cls-1" d="M356.05,651.65a6.71,6.71,0,1,1,6.41-7A6.72,6.72,0,0,1,356.05,651.65Z"/><path class="cls-1" d="M57.62,580.59a6.71,6.71,0,1,1,6.42-7A6.71,6.71,0,0,1,57.62,580.59Z"/><circle class="cls-1" cx="204.26" cy="605.21" r="6.71"/><circle class="cls-1" cx="48.13" cy="508.02" r="6.71"/><path class="cls-1" d="M130.63,595.41a6.71,6.71,0,1,1,6.42-7A6.7,6.7,0,0,1,130.63,595.41Z"/><path class="cls-1" d="M997.79,944.21a6.72,6.72,0,1,1,6.41-7A6.75,6.75,0,0,1,997.79,944.21Z"/><path class="cls-1" d="M1080.12,985.48a6.71,6.71,0,1,1,6.41-7A6.71,6.71,0,0,1,1080.12,985.48Z"/><path class="cls-1" d="M915.28,902.68a6.72,6.72,0,1,1,6.42-7A6.73,6.73,0,0,1,915.28,902.68Z"/><path class="cls-1" d="M1160.92,1023.13a6.71,6.71,0,1,1,6.42-7A6.69,6.69,0,0,1,1160.92,1023.13Z"/><path class="cls-1" d="M1314.55,1074.28a6.72,6.72,0,1,1,6.4-7A6.73,6.73,0,0,1,1314.55,1074.28Z"/><path class="cls-1" d="M756.4,801.77a6.71,6.71,0,1,1,6.41-7A6.72,6.72,0,0,1,756.4,801.77Z"/><path class="cls-1" d="M1174.06,1012.92a6.71,6.71,0,1,1,6.42-7A6.7,6.7,0,0,1,1174.06,1012.92Z"/><path class="cls-1" d="M1091.7,972.87a6.7,6.7,0,1,1,6.42-7A6.72,6.72,0,0,1,1091.7,972.87Z"/><path class="cls-1" d="M1007.9,928.66a6.71,6.71,0,1,1,6.42-7A6.71,6.71,0,0,1,1007.9,928.66Z"/><path class="cls-1" d="M1329.39,1064.68a6.71,6.71,0,1,1,6.4-7A6.72,6.72,0,0,1,1329.39,1064.68Z"/><path class="cls-1" d="M1253.51,1044.49a6.72,6.72,0,1,1,6.4-7A6.72,6.72,0,0,1,1253.51,1044.49Z"/><path class="cls-1" d="M923.69,884a6.71,6.71,0,1,1,6.42-7A6.71,6.71,0,0,1,923.69,884Z"/><path class="cls-1" d="M1401.05,1072.21a6.71,6.71,0,1,1,6.42-7A6.69,6.69,0,0,1,1401.05,1072.21Z"/><path class="cls-1" d="M512.73,702.43a6.72,6.72,0,1,1,6.42-7A6.73,6.73,0,0,1,512.73,702.43Z"/><path class="cls-1" d="M839.82,841.44a6.71,6.71,0,1,1,6.41-7A6.71,6.71,0,0,1,839.82,841.44Z"/><path class="cls-1" d="M592.89,732.33a6.71,6.71,0,1,1,6.41-7A6.72,6.72,0,0,1,592.89,732.33Z"/><path class="cls-1" d="M433.79,675.57a6.71,6.71,0,1,1,6.42-7A6.72,6.72,0,0,1,433.79,675.57Z"/><circle class="cls-1" cx="673.94" cy="758.78" r="6.71" transform="translate(-258.61 358.42) rotate(-25.15)"/><path class="cls-1" d="M1239.34,1053.67a6.71,6.71,0,1,1,6.39-7A6.73,6.73,0,0,1,1239.34,1053.67Z"/><path class="cls-1" d="M840.33,778.51a6.72,6.72,0,1,1,6.42-7A6.73,6.73,0,0,1,840.33,778.51Z"/><path class="cls-1" d="M929.5,828.94a6.71,6.71,0,1,1,6.42-7A6.72,6.72,0,0,1,929.5,828.94Z"/><path class="cls-1" d="M752.41,732.48a6.71,6.71,0,1,1,6.42-7A6.71,6.71,0,0,1,752.41,732.48Z"/><path class="cls-1" d="M185.11,520a6.72,6.72,0,1,1,6.41-7A6.72,6.72,0,0,1,185.11,520Z"/><path class="cls-1" d="M1109.43,937.16a6.71,6.71,0,1,1,6.42-7A6.71,6.71,0,0,1,1109.43,937.16Z"/><path class="cls-1" d="M1019.48,882.94a6.71,6.71,0,1,1,6.41-7A6.7,6.7,0,0,1,1019.48,882.94Z"/><path class="cls-1" d="M417.09,589.8a6.71,6.71,0,1,1,6.41-7A6.71,6.71,0,0,1,417.09,589.8Z"/><path class="cls-1" d="M260.6,540.42a6.71,6.71,0,1,1,6.42-7A6.7,6.7,0,0,1,260.6,540.42Z"/><circle class="cls-1" cx="337.43" cy="556.76" r="6.71"/><path class="cls-1" d="M498.2,619.64a6.71,6.71,0,1,1,6.42-7A6.72,6.72,0,0,1,498.2,619.64Z"/><path class="cls-1" d="M581.29,653.3a6.71,6.71,0,1,1,6.41-7A6.72,6.72,0,0,1,581.29,653.3Z"/><path class="cls-1" d="M1197.27,985.36a6.71,6.71,0,1,1,6.39-7A6.72,6.72,0,0,1,1197.27,985.36Z"/><path class="cls-1" d="M666.09,690.86a6.71,6.71,0,1,1,6.41-7A6.71,6.71,0,0,1,666.09,690.86Z"/><path class="cls-1" d="M1281.4,1021.22a6.71,6.71,0,1,1,6.4-7A6.71,6.71,0,0,1,1281.4,1021.22Z"/><path class="cls-1" d="M1733.28,894.34a6.72,6.72,0,1,1,6.41-7A6.72,6.72,0,0,1,1733.28,894.34Z"/><path class="cls-1" d="M1831.51,829.47a6.5,6.5,0,0,1-.14-1.09,6.72,6.72,0,0,1,6.41-7,6.45,6.45,0,0,1,4.28,1.37Z"/><path class="cls-1" d="M1679.57,931.36a6.71,6.71,0,1,1,6.41-7A6.71,6.71,0,0,1,1679.57,931.36Z"/><path class="cls-1" d="M1786,861.12a6.7,6.7,0,1,1,6.39-7A6.73,6.73,0,0,1,1786,861.12Z"/><path class="cls-1" d="M1360.48,1040.73a6.72,6.72,0,1,1,6.39-7A6.74,6.74,0,0,1,1360.48,1040.73Z"/><path class="cls-1" d="M1434,1043a6.71,6.71,0,1,1,6.4-7A6.71,6.71,0,0,1,1434,1043Z"/><path class="cls-1" d="M1501.94,1029.5a6.72,6.72,0,1,1,6.4-7A6.72,6.72,0,0,1,1501.94,1029.5Z"/><path class="cls-1" d="M1564.83,1003.53a6.71,6.71,0,1,1,6.4-7A6.7,6.7,0,0,1,1564.83,1003.53Z"/><path class="cls-1" d="M1623.65,969.32a6.71,6.71,0,1,1,6.39-7A6.71,6.71,0,0,1,1623.65,969.32Z"/><circle class="cls-1" cx="426.31" cy="610.94" r="6.71"/><path class="cls-1" d="M757.83,755.78a6.71,6.71,0,1,1,6.41-7A6.72,6.72,0,0,1,757.83,755.78Z"/><path class="cls-1" d="M844.24,799.93a6.72,6.72,0,1,1,6.41-7A6.73,6.73,0,0,1,844.24,799.93Z"/><circle class="cls-1" cx="672.46" cy="708.98" r="6.71"/><path class="cls-1" d="M931.58,847.92a6.71,6.71,0,1,1,6.41-7A6.71,6.71,0,0,1,931.58,847.92Z"/><path class="cls-1" d="M589.2,679.43a6.71,6.71,0,1,1,6.42-7A6.72,6.72,0,0,1,589.2,679.43Z"/><path class="cls-1" d="M1019.59,898.88a6.71,6.71,0,1,1,6.41-7A6.72,6.72,0,0,1,1019.59,898.88Z"/><path class="cls-1" d="M347.7,591.85a6.71,6.71,0,1,1,6.41-7A6.72,6.72,0,0,1,347.7,591.85Z"/><path class="cls-1" d="M270.53,569.12a6.71,6.71,0,1,1,6.42-7A6.69,6.69,0,0,1,270.53,569.12Z"/><path class="cls-1" d="M195,549.06a6.71,6.71,0,1,1,6.41-7A6.72,6.72,0,0,1,195,549.06Z"/><path class="cls-1" d="M121,531.1a6.72,6.72,0,1,1,6.42-7A6.72,6.72,0,0,1,121,531.1Z"/><path class="cls-1" d="M1107.21,949.53a6.71,6.71,0,1,1,6.41-7A6.71,6.71,0,0,1,1107.21,949.53Z"/><circle class="cls-1" cx="506.75" cy="640.02" r="6.71"/><path class="cls-1" d="M1353.1,1048.11a6.72,6.72,0,1,1,6.39-7A6.73,6.73,0,0,1,1353.1,1048.11Z"/><path class="cls-1" d="M1193,994.68a6.72,6.72,0,1,1,6.41-7A6.73,6.73,0,0,1,1193,994.68Z"/><path class="cls-1" d="M1671,953.86a6.71,6.71,0,1,1,6.41-7A6.73,6.73,0,0,1,1671,953.86Z"/><path class="cls-1" d="M39.46,484.65a6.71,6.71,0,1,1,6.42-7A6.7,6.7,0,0,1,39.46,484.65Z"/><path class="cls-1" d="M1615,988.38a6.72,6.72,0,1,1,6.41-7A6.72,6.72,0,0,1,1615,988.38Z"/><path class="cls-1" d="M1720.42,917.69a6.45,6.45,0,0,1-2.24-4.57,6.71,6.71,0,0,1,13.09-2.34Z"/><path class="cls-1" d="M1275.39,1028.74a6.72,6.72,0,1,1,6.39-7A6.73,6.73,0,0,1,1275.39,1028.74Z"/><path class="cls-1" d="M111.59,501.65a6.71,6.71,0,1,1,6.42-7A6.71,6.71,0,0,1,111.59,501.65Z"/><path class="cls-1" d="M1556,1018.89a6.71,6.71,0,1,1,6.42-7A6.73,6.73,0,0,1,1556,1018.89Z"/><path class="cls-1" d="M1493.15,1041.22a6.71,6.71,0,1,1,6.41-7A6.72,6.72,0,0,1,1493.15,1041.22Z"/><path class="cls-1" d="M1425.68,1051.85a6.71,6.71,0,1,1,6.4-7A6.72,6.72,0,0,1,1425.68,1051.85Z"/><circle class="cls-1" cx="750.73" cy="818.95" r="6.71" transform="translate(-149.94 1469.39) rotate(-83.32)"/><path class="cls-1" d="M50.66,789.76a6.71,6.71,0,1,1,6.42-7A6.71,6.71,0,0,1,50.66,789.76Z"/><path class="cls-1" d="M122,799a6.71,6.71,0,1,1,6.42-7A6.71,6.71,0,0,1,122,799Z"/><path class="cls-1" d="M266.22,822.22a6.71,6.71,0,1,1,6.42-7A6.72,6.72,0,0,1,266.22,822.22Z"/><path class="cls-1" d="M189.6,857.89a6.72,6.72,0,1,1,6.41-7A6.71,6.71,0,0,1,189.6,857.89Z"/><circle class="cls-1" cx="193.59" cy="803.12" r="6.71"/><path class="cls-1" d="M339.26,836.57a6.71,6.71,0,1,1,6.41-7A6.72,6.72,0,0,1,339.26,836.57Z"/><path class="cls-1" d="M548.87,929.72a6.09,6.09,0,0,1-1.41-3.59,6.73,6.73,0,0,1,6.41-7,6.52,6.52,0,0,1,6.08,3.56Z"/><path class="cls-1" d="M333.8,881.83a6.71,6.71,0,1,1,6.41-7A6.72,6.72,0,0,1,333.8,881.83Z"/><path class="cls-1" d="M261.47,869a6.72,6.72,0,1,1,6.43-7A6.74,6.74,0,0,1,261.47,869Z"/><path class="cls-1" d="M480.21,913.3a6.71,6.71,0,1,1,6.41-7A6.7,6.7,0,0,1,480.21,913.3Z"/><path class="cls-1" d="M406.7,896.58a6.7,6.7,0,1,1,6.41-7A6.72,6.72,0,0,1,406.7,896.58Z"/><path class="cls-1" d="M197.93,764.63a6.72,6.72,0,1,1,6.41-7A6.72,6.72,0,0,1,197.93,764.63Z"/><path class="cls-1" d="M125.53,752.61a6.71,6.71,0,1,1,6.42-7A6.71,6.71,0,0,1,125.53,752.61Z"/><path class="cls-1" d="M412.93,853a6.71,6.71,0,1,1,6.42-7A6.72,6.72,0,0,1,412.93,853Z"/><path class="cls-1" d="M344.66,794.29a6.7,6.7,0,1,1,6.41-7A6.74,6.74,0,0,1,344.66,794.29Z"/><path class="cls-1" d="M271,778.47a6.71,6.71,0,1,1,6.42-7A6.72,6.72,0,0,1,271,778.47Z"/><path class="cls-1" d="M53.7,742.16a6.71,6.71,0,1,1,6.42-7A6.72,6.72,0,0,1,53.7,742.16Z"/><path class="cls-1" d="M562.34,892.22a6.71,6.71,0,1,1,6.41-7A6.72,6.72,0,0,1,562.34,892.22Z"/><path class="cls-1" d="M487.27,871.46a6.71,6.71,0,1,1,6.42-7A6.71,6.71,0,0,1,487.27,871.46Z"/><path class="cls-1" d="M638.05,915.19a6.71,6.71,0,1,1,6.41-7A6.72,6.72,0,0,1,638.05,915.19Z"/><path class="cls-1" d="M707.68,934.66a6.71,6.71,0,0,1,6.42-6.7,6.47,6.47,0,0,1,3.07.63Z"/><circle class="cls-1" cx="108.78" cy="1006.41" r="6.71"/><path class="cls-1" d="M182,962.68a6.71,6.71,0,1,1,6.41-7A6.73,6.73,0,0,1,182,962.68Z"/><path class="cls-1" d="M111.58,955.55a6.71,6.71,0,1,1,6.42-7A6.71,6.71,0,0,1,111.58,955.55Z"/><path class="cls-1" d="M47.33,840.3a6.71,6.71,0,1,1,6.42-7A6.71,6.71,0,0,1,47.33,840.3Z"/><path class="cls-1" d="M398.89,942.9a6.58,6.58,0,0,1-5.11-6.06,6.72,6.72,0,1,1,13.42-.58,6.51,6.51,0,0,1-.09,1.4Z"/><path class="cls-1" d="M256.8,918.68a6.71,6.71,0,1,1,6.41-7A6.73,6.73,0,0,1,256.8,918.68Z"/><path class="cls-1" d="M328.54,930.05a6.72,6.72,0,1,1,6.41-7A6.71,6.71,0,0,1,328.54,930.05Z"/><path class="cls-1" d="M252.68,971.16a6.71,6.71,0,1,1,6.41-7A6.71,6.71,0,0,1,252.68,971.16Z"/><path class="cls-1" d="M118.29,848.36a6.7,6.7,0,1,1,6.41-7A6.72,6.72,0,0,1,118.29,848.36Z"/><circle class="cls-1" cx="185.27" cy="902.17" r="6.71"/><path class="cls-1" d="M419.16,812.33a6.71,6.71,0,1,1,6.41-7A6.71,6.71,0,0,1,419.16,812.33Z"/><path class="cls-1" d="M832.79,862.82a6.73,6.73,0,1,1,6.42-7A6.73,6.73,0,0,1,832.79,862.82Z"/><path class="cls-1" d="M44.27,893.64a6.71,6.71,0,1,1,6.43-7A6.73,6.73,0,0,1,44.27,893.64Z"/><path class="cls-1" d="M114.78,900.6a6.72,6.72,0,1,1,6.42-7A6.72,6.72,0,0,1,114.78,900.6Z"/><circle class="cls-1" cx="203.88" cy="676.38" r="6.71"/><path class="cls-1" d="M823.87,885.61a6.71,6.71,0,1,1,6.43-7A6.72,6.72,0,0,1,823.87,885.61Z"/><path class="cls-1" d="M743.52,851a6.71,6.71,0,1,1,6.42-7A6.72,6.72,0,0,1,743.52,851Z"/><path class="cls-1" d="M1066.73,999.51a6.7,6.7,0,1,1,6.41-7A6.7,6.7,0,0,1,1066.73,999.51Z"/><path class="cls-1" d="M985.92,961.18a6.72,6.72,0,1,1,6.42-7A6.73,6.73,0,0,1,985.92,961.18Z"/><path class="cls-1" d="M663.72,819a6.71,6.71,0,1,1,6.41-7A6.71,6.71,0,0,1,663.72,819Z"/><path class="cls-1" d="M278.36,699.5a6.7,6.7,0,1,1,6.42-7A6.72,6.72,0,0,1,278.36,699.5Z"/><path class="cls-1" d="M353.53,718.22a6.71,6.71,0,1,1,6.41-7A6.71,6.71,0,0,1,353.53,718.22Z"/><path class="cls-1" d="M1146.23,1034.91a6.72,6.72,0,1,1,6.41-7A6.73,6.73,0,0,1,1146.23,1034.91Z"/><path class="cls-1" d="M584.78,789.71a6.71,6.71,0,1,1,6.42-7A6.71,6.71,0,0,1,584.78,789.71Z"/><circle class="cls-1" cx="506.42" cy="756.47" r="6.71" transform="translate(-273.59 287.12) rotate(-25.16)"/><path class="cls-1" d="M429.67,739.39a6.71,6.71,0,1,1,6.42-7A6.7,6.7,0,0,1,429.67,739.39Z"/><path class="cls-1" d="M904.9,922.68a6.71,6.71,0,1,1,6.42-7A6.7,6.7,0,0,1,904.9,922.68Z"/><path class="cls-1" d="M494.35,832.64a6.71,6.71,0,1,1,6.41-7A6.73,6.73,0,0,1,494.35,832.64Z"/><path class="cls-1" d="M432.79,706.53a6.71,6.71,0,1,1,6.42-7A6.71,6.71,0,0,1,432.79,706.53Z"/><path class="cls-1" d="M510.87,731.91a6.71,6.71,0,1,1,6.41-7A6.7,6.7,0,0,1,510.87,731.91Z"/><path class="cls-1" d="M670.07,791.46a6.71,6.71,0,1,1,6.41-7A6.71,6.71,0,0,1,670.07,791.46Z"/><path class="cls-1" d="M27.34,456.23a6.71,6.71,0,1,1,6.41-7A6.73,6.73,0,0,1,27.34,456.23Z"/><path class="cls-1" d="M590.07,760.23a6.71,6.71,0,1,1,6.41-7A6.72,6.72,0,0,1,590.07,760.23Z"/><path class="cls-1" d="M280.06,663.93a6.72,6.72,0,1,1,6.41-7A6.73,6.73,0,0,1,280.06,663.93Z"/><circle class="cls-1" cx="58.46" cy="610.19" r="6.71"/><path class="cls-1" d="M205.32,646.31a6.72,6.72,0,1,1,6.42-7A6.72,6.72,0,0,1,205.32,646.31Z"/><path class="cls-1" d="M131.57,630.76a6.72,6.72,0,1,1,6.42-7A6.73,6.73,0,0,1,131.57,630.76Z"/><path class="cls-1" d="M356,683.91a6.71,6.71,0,1,1,6.42-7A6.72,6.72,0,0,1,356,683.91Z"/><path class="cls-1" d="M56.5,697.56a6.71,6.71,0,1,1,6.42-7A6.72,6.72,0,0,1,56.5,697.56Z"/><path class="cls-1" d="M128.61,709.16a6.72,6.72,0,1,1,6.41-7A6.72,6.72,0,0,1,128.61,709.16Z"/><circle class="cls-1" cx="349.29" cy="748.19" r="6.71" transform="translate(-285.07 219.63) rotate(-25.17)"/><path class="cls-1" d="M275.11,737.58a6.71,6.71,0,1,1,6.42-7A6.72,6.72,0,0,1,275.11,737.58Z"/><path class="cls-1" d="M201.54,722.4a6.71,6.71,0,1,1,6.41-7A6.71,6.71,0,0,1,201.54,722.4Z"/><path class="cls-1" d="M570.41,855.35a6.72,6.72,0,1,1,6.42-7A6.73,6.73,0,0,1,570.41,855.35Z"/><path class="cls-1" d="M647.17,880.47a6.71,6.71,0,1,1,6.42-7A6.72,6.72,0,0,1,647.17,880.47Z"/><path class="cls-1" d="M802.34,937.45a6.72,6.72,0,1,1,6.42-7A6.73,6.73,0,0,1,802.34,937.45Z"/><path class="cls-1" d="M870.28,964.63a10.45,10.45,0,0,0,.49,2l17.13-10.91a10.66,10.66,0,0,0-7.2-2.47A10.9,10.9,0,0,0,870.28,964.63Z"/><path class="cls-1" d="M724.59,907.9a6.72,6.72,0,1,1,6.42-7A6.72,6.72,0,0,1,724.59,907.9Z"/><circle class="cls-1" cx="500.84" cy="789.97" r="6.71"/><path class="cls-1" d="M1042.5,1009.73l12.84-8.17a10.41,10.41,0,0,0-2.84-.46A10.81,10.81,0,0,0,1042.5,1009.73Z"/><path class="cls-1" d="M893.25,944.63a6.71,6.71,0,1,1,6.42-7A6.72,6.72,0,0,1,893.25,944.63Z"/><circle class="cls-1" cx="972.59" cy="973.47" r="6.71" transform="translate(-107.37 1826.26) rotate(-83.32)"/><path class="cls-1" d="M58.29,655.83a6.71,6.71,0,1,1,6.41-7A6.72,6.72,0,0,1,58.29,655.83Z"/><path class="cls-1" d="M656,848.53a6.71,6.71,0,1,1,6.42-7A6.71,6.71,0,0,1,656,848.53Z"/><path class="cls-1" d="M578.12,821.31a6.72,6.72,0,1,1,6.41-7A6.72,6.72,0,0,1,578.12,821.31Z"/><path class="cls-1" d="M130.81,668.6a6.71,6.71,0,1,1,6.41-7A6.72,6.72,0,0,1,130.81,668.6Z"/><circle class="cls-1" cx="813.3" cy="903.66" r="6.71"/><path class="cls-1" d="M734.52,878.28a6.72,6.72,0,1,1,6.42-7A6.74,6.74,0,0,1,734.52,878.28Z"/><ellipse class="cls-1" cx="424.59" cy="767.84" rx="6.72" ry="6.71" transform="translate(-33.99 19.8) rotate(-2.57)"/><path class="cls-1" d="M2007.39,723.2a6.71,6.71,0,1,1,6.4-7A6.71,6.71,0,0,1,2007.39,723.2Z"/><path class="cls-1" d="M1023.81,824.41a6.72,6.72,0,1,1,6.41-7A6.72,6.72,0,0,1,1023.81,824.41Z"/><path class="cls-1" d="M921.62,754.38a6.71,6.71,0,1,1,6.41-7A6.72,6.72,0,0,1,921.62,754.38Z"/><path class="cls-1" d="M723.89,636.15a6.72,6.72,0,1,1,6.42-7A6.74,6.74,0,0,1,723.89,636.15Z"/><circle class="cls-1" cx="821.22" cy="684.94" r="6.71"/><path class="cls-1" d="M1226.1,959.6a6.71,6.71,0,1,1,6.39-7A6.71,6.71,0,0,1,1226.1,959.6Z"/><path class="cls-1" d="M1126.26,896.69a6.72,6.72,0,1,1,6.41-7A6.72,6.72,0,0,1,1126.26,896.69Z"/><path class="cls-1" d="M364.4,475.63a6.72,6.72,0,1,1,6.41-7A6.72,6.72,0,0,1,364.4,475.63Z"/><path class="cls-1" d="M628.7,586.93a6.71,6.71,0,1,1,6.42-7A6.72,6.72,0,0,1,628.7,586.93Z"/><path class="cls-1" d="M284.81,449.59a6.72,6.72,0,1,1,6.42-7A6.72,6.72,0,0,1,284.81,449.59Z"/><path class="cls-1" d="M1319.75,1001a6.71,6.71,0,1,1,6.39-7A6.73,6.73,0,0,1,1319.75,1001Z"/><path class="cls-1" d="M536.81,543.9a6.71,6.71,0,1,1,6.41-7A6.73,6.73,0,0,1,536.81,543.9Z"/><path class="cls-1" d="M448.57,506.91a6.72,6.72,0,1,1,6.41-7A6.73,6.73,0,0,1,448.57,506.91Z"/><path class="cls-1" d="M2005.62,694.13a6.71,6.71,0,1,1,6.41-7A6.72,6.72,0,0,1,2005.62,694.13Z"/><path class="cls-1" d="M1899.09,710.43a6.71,6.71,0,1,1,6.4-7A6.73,6.73,0,0,1,1899.09,710.43Z"/><path class="cls-1" d="M1845,729.05a6.71,6.71,0,1,1,6.41-7A6.71,6.71,0,0,1,1845,729.05Z"/><path class="cls-1" d="M1952.66,700.12a6.71,6.71,0,1,1,6.39-7A6.71,6.71,0,0,1,1952.66,700.12Z"/><path class="cls-1" d="M2057.94,688.92a6.71,6.71,0,1,1,6.4-7A6.74,6.74,0,0,1,2057.94,688.92Z"/><path class="cls-1" d="M2109.53,681.75a6.71,6.71,0,1,1,6.41-7A6.72,6.72,0,0,1,2109.53,681.75Z"/><path class="cls-1" d="M1790.29,759.67a6.71,6.71,0,1,1,6.39-7A6.7,6.7,0,0,1,1790.29,759.67Z"/><path class="cls-1" d="M1554.27,967.59a6.71,6.71,0,1,1,6.4-7A6.72,6.72,0,0,1,1554.27,967.59Z"/><path class="cls-1" d="M1483.8,1002.9a6.71,6.71,0,1,1,6.39-7A6.73,6.73,0,0,1,1483.8,1002.9Z"/><path class="cls-1" d="M1405.73,1015.33a6.71,6.71,0,1,1,6.43-7A6.7,6.7,0,0,1,1405.73,1015.33Z"/><path class="cls-1" d="M1734.87,803.48a6.71,6.71,0,1,1,6.42-7A6.71,6.71,0,0,1,1734.87,803.48Z"/><path class="cls-1" d="M1678,858.19a6.71,6.71,0,1,1,6.4-7A6.71,6.71,0,0,1,1678,858.19Z"/><path class="cls-1" d="M1618.35,916.27a6.72,6.72,0,1,1,6.4-7A6.73,6.73,0,0,1,1618.35,916.27Z"/><path class="cls-1" d="M209.52,427.57a6.72,6.72,0,1,1,6.41-7A6.73,6.73,0,0,1,209.52,427.57Z"/><path class="cls-1" d="M1628.05,917.59a6.71,6.71,0,1,1,6.4-7A6.71,6.71,0,0,1,1628.05,917.59Z"/><path class="cls-1" d="M1686,864.2a6.71,6.71,0,1,1,6.4-7A6.7,6.7,0,0,1,1686,864.2Z"/><path class="cls-1" d="M138.24,408.26a6.71,6.71,0,1,1,6.41-7A6.71,6.71,0,0,1,138.24,408.26Z"/><path class="cls-1" d="M1849.53,746.23a6.71,6.71,0,1,1,6.42-7A6.69,6.69,0,0,1,1849.53,746.23Z"/><path class="cls-1" d="M1498.37,1002.68a6.7,6.7,0,1,1,6.4-7A6.71,6.71,0,0,1,1498.37,1002.68Z"/><path class="cls-1" d="M1741.64,814.7a6.71,6.71,0,1,1,6.41-7A6.71,6.71,0,0,1,1741.64,814.7Z"/><path class="cls-1" d="M1057.53,857.93a6.71,6.71,0,1,1,6.41-7A6.71,6.71,0,0,1,1057.53,857.93Z"/><path class="cls-1" d="M1156.81,925a6.71,6.71,0,1,1,6.42-7A6.7,6.7,0,0,1,1156.81,925Z"/><path class="cls-1" d="M1252.57,979.42a6.71,6.71,0,1,1,6.41-7A6.69,6.69,0,0,1,1252.57,979.42Z"/><path class="cls-1" d="M1342,1011.9a6.71,6.71,0,1,1,6.41-7A6.71,6.71,0,0,1,1342,1011.9Z"/><path class="cls-1" d="M1424,1019.19a6.72,6.72,0,1,1,6.42-7A6.71,6.71,0,0,1,1424,1019.19Z"/><path class="cls-1" d="M1566.15,966.52a6.71,6.71,0,1,1,6.41-7A6.71,6.71,0,0,1,1566.15,966.52Z"/><path class="cls-1" d="M1902.63,727.65a6.71,6.71,0,1,1,6.42-7A6.7,6.7,0,0,1,1902.63,727.65Z"/><path class="cls-1" d="M2211.77,665.46a6.71,6.71,0,1,1,6.42-7A6.71,6.71,0,0,1,2211.77,665.46Z"/><path class="cls-1" d="M70.42,390a6.71,6.71,0,1,1,6.42-7A6.73,6.73,0,0,1,70.42,390Z"/><path class="cls-1" d="M1955.46,716a6.72,6.72,0,1,1,6.41-7A6.72,6.72,0,0,1,1955.46,716Z"/><path class="cls-1" d="M2007.84,708.1a6.71,6.71,0,1,1,6.41-7A6.7,6.7,0,0,1,2007.84,708.1Z"/><path class="cls-1" d="M2059.75,701a6.72,6.72,0,1,1,6.38-7A6.72,6.72,0,0,1,2059.75,701Z"/><path class="cls-1" d="M2111,692.28a6.7,6.7,0,1,1,6.42-7A6.71,6.71,0,0,1,2111,692.28Z"/><path class="cls-1" d="M2161.73,680.68a6.71,6.71,0,1,1,6.41-7A6.72,6.72,0,0,1,2161.73,680.68Z"/><path class="cls-1" d="M1602.46,922.21a6.72,6.72,0,1,1,6.4-7A6.72,6.72,0,0,1,1602.46,922.21Z"/><path class="cls-1" d="M2255.71,627.53a6.72,6.72,0,1,1,6.41-7A6.71,6.71,0,0,1,2255.71,627.53Z"/><path class="cls-1" d="M2053.06,677.8a6.71,6.71,0,1,1,6.41-7A6.71,6.71,0,0,1,2053.06,677.8Z"/><path class="cls-1" d="M2000,680.85a6.71,6.71,0,1,1,6.41-7A6.71,6.71,0,0,1,2000,680.85Z"/><path class="cls-1" d="M2105,672.56a6.71,6.71,0,1,1,6.41-7A6.71,6.71,0,0,1,2105,672.56Z"/><path class="cls-1" d="M2206.15,647.9a6.71,6.71,0,1,1,6.41-7A6.71,6.71,0,0,1,2206.15,647.9Z"/><path class="cls-1" d="M2156.07,662.91a6.71,6.71,0,1,1,6.4-7A6.72,6.72,0,0,1,2156.07,662.91Z"/><path class="cls-1" d="M1946.17,685a6.71,6.71,0,1,1,6.4-7A6.72,6.72,0,0,1,1946.17,685Z"/><path class="cls-1" d="M1664.34,859.77a6.72,6.72,0,1,1,6.42-7A6.73,6.73,0,0,1,1664.34,859.77Z"/><path class="cls-1" d="M1722.9,798.76a6.71,6.71,0,1,1,6.42-7A6.7,6.7,0,0,1,1722.9,798.76Z"/><path class="cls-1" d="M2160.24,670.93a6.71,6.71,0,1,1,6.41-7A6.73,6.73,0,0,1,2160.24,670.93Z"/><path class="cls-1" d="M957.77,789.77a6.72,6.72,0,1,1,6.41-7A6.72,6.72,0,0,1,957.77,789.77Z"/><path class="cls-1" d="M1836.13,714.45a6.71,6.71,0,1,1,6.41-7A6.7,6.7,0,0,1,1836.13,714.45Z"/><path class="cls-1" d="M1891.46,694.59a6.71,6.71,0,1,1,6.42-7A6.72,6.72,0,0,1,1891.46,694.59Z"/><path class="cls-1" d="M54.41,360.11a6.71,6.71,0,1,1,6.41-7A6.73,6.73,0,0,1,54.41,360.11Z"/><path class="cls-1" d="M117.9,377.3a6.71,6.71,0,1,1,6.42-7A6.72,6.72,0,0,1,117.9,377.3Z"/><path class="cls-1" d="M186.13,394.6a6.71,6.71,0,1,1,6.42-7A6.73,6.73,0,0,1,186.13,394.6Z"/><path class="cls-1" d="M259.7,414.4a6.71,6.71,0,1,1,6.42-7A6.72,6.72,0,0,1,259.7,414.4Z"/><path class="cls-1" d="M2357.18,575.22a6.71,6.71,0,1,1,6.39-7A6.71,6.71,0,0,1,2357.18,575.22Z"/><path class="cls-1" d="M2305.58,602.77a6.71,6.71,0,1,1,6.41-7A6.73,6.73,0,0,1,2305.58,602.77Z"/><path class="cls-1" d="M1779.91,748.91a6.71,6.71,0,1,1,6.42-7A6.7,6.7,0,0,1,1779.91,748.91Z"/><path class="cls-1" d="M34.2,365.88a6.72,6.72,0,1,1,6.41-7A6.73,6.73,0,0,1,34.2,365.88Z"/><path class="cls-1" d="M98.3,384a6.72,6.72,0,1,1,6.41-7A6.72,6.72,0,0,1,98.3,384Z"/><path class="cls-1" d="M1535.31,973.93a6.72,6.72,0,1,1,6.42-7A6.71,6.71,0,0,1,1535.31,973.93Z"/><path class="cls-1" d="M315.9,444.79a6.71,6.71,0,1,1,6.42-7A6.71,6.71,0,0,1,315.9,444.79Z"/><path class="cls-1" d="M238.51,421.47a6.72,6.72,0,1,1,6.41-7A6.73,6.73,0,0,1,238.51,421.47Z"/><path class="cls-1" d="M2210.25,655.71a6.72,6.72,0,1,1,6.4-7A6.73,6.73,0,0,1,2210.25,655.71Z"/><path class="cls-1" d="M2259.85,636.05a6.72,6.72,0,1,1,6.43-7A6.7,6.7,0,0,1,2259.85,636.05Z"/><circle class="cls-1" cx="2309.65" cy="606.19" r="6.71"/><path class="cls-1" d="M166.31,401.89a6.72,6.72,0,1,1,6.41-7A6.74,6.74,0,0,1,166.31,401.89Z"/><path class="cls-1" d="M398.35,473.19a6.71,6.71,0,1,1,6.41-7A6.72,6.72,0,0,1,398.35,473.19Z"/><path class="cls-1" d="M979.19,783.18a6.72,6.72,0,1,1,6.42-7A6.73,6.73,0,0,1,979.19,783.18Z"/><path class="cls-1" d="M1287.57,984.59a6.72,6.72,0,1,1,6.42-7A6.73,6.73,0,0,1,1287.57,984.59Z"/><path class="cls-1" d="M1084.48,859.16a6.71,6.71,0,1,1,6.42-7A6.69,6.69,0,0,1,1084.48,859.16Z"/><path class="cls-1" d="M1378.63,1009.76a6.71,6.71,0,1,1,6.4-7A6.72,6.72,0,0,1,1378.63,1009.76Z"/><path class="cls-1" d="M1461,1005.23a6.72,6.72,0,1,1,6.4-7A6.72,6.72,0,0,1,1461,1005.23Z"/><path class="cls-1" d="M1188.57,931.21a6.71,6.71,0,1,1,6.42-7A6.69,6.69,0,0,1,1188.57,931.21Z"/><path class="cls-1" d="M486,507.75a6.71,6.71,0,1,1,6.41-7A6.7,6.7,0,0,1,486,507.75Z"/><path class="cls-1" d="M578,548.83a6.71,6.71,0,1,1,6.41-7A6.73,6.73,0,0,1,578,548.83Z"/><path class="cls-1" d="M98.42,473.62a6.71,6.71,0,1,1,6.41-7A6.74,6.74,0,0,1,98.42,473.62Z"/><path class="cls-1" d="M773.19,651.27a6.72,6.72,0,1,1,6.42-7A6.73,6.73,0,0,1,773.19,651.27Z"/><path class="cls-1" d="M875,713.17a6.71,6.71,0,1,1,6.41-7A6.72,6.72,0,0,1,875,713.17Z"/><path class="cls-1" d="M674.17,596.73a6.71,6.71,0,1,1,6.42-7A6.72,6.72,0,0,1,674.17,596.73Z"/><circle class="cls-1" cx="464.36" cy="557.86" r="6.71"/><path class="cls-1" d="M382.8,534.43a6.72,6.72,0,1,1,6.41-7A6.72,6.72,0,0,1,382.8,534.43Z"/><path class="cls-1" d="M1796.24,813.89a6.71,6.71,0,1,1,6.42-7A6.73,6.73,0,0,1,1796.24,813.89Z"/><path class="cls-1" d="M725,681.78a6.71,6.71,0,1,1,6.41-7A6.72,6.72,0,0,1,725,681.78Z"/><path class="cls-1" d="M816,730.55a6.71,6.71,0,1,1,6.42-7A6.73,6.73,0,0,1,816,730.55Z"/><circle class="cls-1" cx="303.21" cy="501.55" r="6.71" transform="translate(-230.17 744.45) rotate(-83.33)"/><path class="cls-1" d="M635.93,638a6.71,6.71,0,1,1,6.42-7A6.7,6.7,0,0,1,635.93,638Z"/><path class="cls-1" d="M153.16,465.35a6.72,6.72,0,1,1,6.41-7A6.71,6.71,0,0,1,153.16,465.35Z"/><circle class="cls-1" cx="81.05" cy="440.1" r="6.71"/><path class="cls-1" d="M227.13,485.55a6.71,6.71,0,1,1,6.41-7A6.71,6.71,0,0,1,227.13,485.55Z"/><path class="cls-1" d="M1633.11,936.56a6.71,6.71,0,1,1,6.4-7A6.72,6.72,0,0,1,1633.11,936.56Z"/><path class="cls-1" d="M1573.56,978.52a6.72,6.72,0,1,1,6.41-7A6.73,6.73,0,0,1,1573.56,978.52Z"/><path class="cls-1" d="M1439.3,1028.53a6.71,6.71,0,1,1,6.4-7A6.71,6.71,0,0,1,1439.3,1028.53Z"/><path class="cls-1" d="M1509.37,1011a6.71,6.71,0,1,1,6.39-7A6.73,6.73,0,0,1,1509.37,1011Z"/><path class="cls-1" d="M1689.3,891.56a6.71,6.71,0,1,1,6.39-7A6.73,6.73,0,0,1,1689.3,891.56Z"/><path class="cls-1" d="M1743.37,849.37a6.71,6.71,0,1,1,6.39-7A6.71,6.71,0,0,1,1743.37,849.37Z"/><path class="cls-1" d="M1279.67,1004.48a6.72,6.72,0,1,1,6.41-7A6.73,6.73,0,0,1,1279.67,1004.48Z"/><path class="cls-1" d="M1003,844.34a6.71,6.71,0,1,1,6.42-7A6.72,6.72,0,0,1,1003,844.34Z"/><circle class="cls-1" cx="1097.38" cy="899.2" r="6.71"/><path class="cls-1" d="M1362.75,1027a6.71,6.71,0,1,1,6.39-7A6.72,6.72,0,0,1,1362.75,1027Z"/><path class="cls-1" d="M908.82,784.88a6.71,6.71,0,1,1,6.42-7A6.73,6.73,0,0,1,908.82,784.88Z"/><path class="cls-1" d="M1190.86,962.31a6.71,6.71,0,1,1,6.39-7A6.72,6.72,0,0,1,1190.86,962.31Z"/><path class="cls-1" d="M549,599a6.71,6.71,0,1,1,6.41-7A6.72,6.72,0,0,1,549,599Z"/><path class="cls-1" d="M741.76,708a6.72,6.72,0,1,1,6.41-7A6.72,6.72,0,0,1,741.76,708Z"/><path class="cls-1" d="M654.06,665.16a6.71,6.71,0,1,1,6.41-7A6.71,6.71,0,0,1,654.06,665.16Z"/><path class="cls-1" d="M831.16,755.6a6.71,6.71,0,1,1,6.41-7A6.72,6.72,0,0,1,831.16,755.6Z"/><path class="cls-1" d="M1014.42,865.19a6.71,6.71,0,1,1,6.41-7A6.73,6.73,0,0,1,1014.42,865.19Z"/><path class="cls-1" d="M568.15,626.67a6.72,6.72,0,1,1,6.42-7A6.72,6.72,0,0,1,568.15,626.67Z"/><path class="cls-1" d="M1106.53,923a6.71,6.71,0,1,1,6.41-7A6.73,6.73,0,0,1,1106.53,923Z"/><path class="cls-1" d="M922.21,808.19a6.72,6.72,0,1,1,6.42-7A6.72,6.72,0,0,1,922.21,808.19Z"/><path class="cls-1" d="M246.28,512.61a6.71,6.71,0,1,1,6.41-7A6.72,6.72,0,0,1,246.28,512.61Z"/><path class="cls-1" d="M859.55,727.2a6.71,6.71,0,1,1,6.41-7A6.73,6.73,0,0,1,859.55,727.2Z"/><path class="cls-1" d="M402.62,562.14a6.72,6.72,0,1,1,6.41-7A6.73,6.73,0,0,1,402.62,562.14Z"/><path class="cls-1" d="M323.23,535.71a6.72,6.72,0,1,1,6.41-7A6.72,6.72,0,0,1,323.23,535.71Z"/><path class="cls-1" d="M484.3,592.36a6.71,6.71,0,1,1,6.42-7A6.7,6.7,0,0,1,484.3,592.36Z"/><path class="cls-1" d="M1507.46,1019.29a6.71,6.71,0,1,1,6.42-7A6.72,6.72,0,0,1,1507.46,1019.29Z"/><path class="cls-1" d="M1792.18,836.69a6.71,6.71,0,1,1,6.4-7A6.72,6.72,0,0,1,1792.18,836.69Z"/><path class="cls-1" d="M1629.85,951.77a6.71,6.71,0,1,1,6.4-7A6.71,6.71,0,0,1,1629.85,951.77Z"/><path class="cls-1" d="M1196.88,974.91a6.71,6.71,0,1,1,6.42-7A6.72,6.72,0,0,1,1196.88,974.91Z"/><path class="cls-1" d="M1739.54,870.94a6.72,6.72,0,1,1,6.4-7A6.73,6.73,0,0,1,1739.54,870.94Z"/><path class="cls-1" d="M1844.26,809.1a6.72,6.72,0,1,1,6.39-7A6.72,6.72,0,0,1,1844.26,809.1Z"/><path class="cls-1" d="M1896.34,787.68a6.71,6.71,0,1,1,6.4-7A6.73,6.73,0,0,1,1896.34,787.68Z"/><path class="cls-1" d="M1685.73,910.43a6.72,6.72,0,1,1,6.39-7A6.73,6.73,0,0,1,1685.73,910.43Z"/><path class="cls-1" d="M1570.86,989.86a6.72,6.72,0,1,1,6.41-7A6.71,6.71,0,0,1,1570.86,989.86Z"/><path class="cls-1" d="M1364,1033.76a6.71,6.71,0,1,1,6.42-7A6.71,6.71,0,0,1,1364,1033.76Z"/><path class="cls-1" d="M1283.15,1013.35a6.71,6.71,0,1,1,6.39-7A6.72,6.72,0,0,1,1283.15,1013.35Z"/><path class="cls-1" d="M1438.72,1035.12a6.72,6.72,0,1,1,6.4-7A6.72,6.72,0,0,1,1438.72,1035.12Z"/><path class="cls-1" d="M1937.64,768a11.32,11.32,0,0,0,.82,3.31L1956.25,760a10.71,10.71,0,0,0-8.19-3.35A10.94,10.94,0,0,0,1937.64,768Z"/><path class="cls-1" d="M171.37,492.18a6.72,6.72,0,1,1,6.42-7A6.73,6.73,0,0,1,171.37,492.18Z"/><circle class="cls-1" cx="339.13" cy="432.26" r="6.71"/><path class="cls-1" d="M2059,714.33a6.72,6.72,0,1,1,6.43-7A6.72,6.72,0,0,1,2059,714.33Z"/><path class="cls-1" d="M1955.32,733a6.72,6.72,0,1,1,6.4-7A6.72,6.72,0,0,1,1955.32,733Z"/><path class="cls-1" d="M2159.4,683.49a10.85,10.85,0,0,0-5.13,3.26Z"/><path class="cls-1" d="M2110.27,704.41a6.71,6.71,0,1,1,6.41-7A6.72,6.72,0,0,1,2110.27,704.41Z"/><path class="cls-1" d="M1903.05,746.17a6.72,6.72,0,1,1,6.39-7A6.73,6.73,0,0,1,1903.05,746.17Z"/><path class="cls-1" d="M1632.74,924.77a6.7,6.7,0,1,1,6.41-7A6.71,6.71,0,0,1,1632.74,924.77Z"/><path class="cls-1" d="M1689.58,875.8a6.71,6.71,0,1,1,6.42-7A6.7,6.7,0,0,1,1689.58,875.8Z"/><path class="cls-1" d="M1744.15,830.46a6.72,6.72,0,1,1,6.41-7A6.72,6.72,0,0,1,1744.15,830.46Z"/><path class="cls-1" d="M1850.46,765.42a6.71,6.71,0,1,1,6.4-7A6.71,6.71,0,0,1,1850.46,765.42Z"/><path class="cls-1" d="M1797.66,793.12a6.71,6.71,0,1,1,6.42-7A6.72,6.72,0,0,1,1797.66,793.12Z"/><path class="cls-1" d="M763.45,671.39a6.71,6.71,0,1,1,6.41-7A6.71,6.71,0,0,1,763.45,671.39Z"/><path class="cls-1" d="M405.24,506.17a6.71,6.71,0,1,1,6.42-7A6.7,6.7,0,0,1,405.24,506.17Z"/><path class="cls-1" d="M324.21,478a6.71,6.71,0,1,1,6.41-7A6.72,6.72,0,0,1,324.21,478Z"/><path class="cls-1" d="M578.16,577.69a6.71,6.71,0,1,1,6.42-7A6.7,6.7,0,0,1,578.16,577.69Z"/><circle class="cls-1" cx="669.22" cy="615" r="6.71"/><path class="cls-1" d="M1572.08,970.54a6.71,6.71,0,1,1,6.4-7A6.71,6.71,0,0,1,1572.08,970.54Z"/><path class="cls-1" d="M490,539.29a6.72,6.72,0,1,1,6.41-7A6.72,6.72,0,0,1,490,539.29Z"/><path class="cls-1" d="M34.74,396.05a6.71,6.71,0,1,1,6.42-7A6.73,6.73,0,0,1,34.74,396.05Z"/><path class="cls-1" d="M246.85,454.07a6.72,6.72,0,1,1,6.41-7A6.73,6.73,0,0,1,246.85,454.07Z"/><path class="cls-1" d="M173.2,433.32a6.71,6.71,0,1,1,6.42-7A6.72,6.72,0,0,1,173.2,433.32Z"/><path class="cls-1" d="M1848.52,786.45a6.72,6.72,0,1,1,6.4-7A6.75,6.75,0,0,1,1848.52,786.45Z"/><path class="cls-1" d="M102.7,414.43a6.71,6.71,0,1,1,6.41-7A6.71,6.71,0,0,1,102.7,414.43Z"/><path class="cls-1" d="M1506.5,1005.4a6.71,6.71,0,1,1,6.41-7A6.7,6.7,0,0,1,1506.5,1005.4Z"/><path class="cls-1" d="M130.32,439.48a6.71,6.71,0,1,1,6.42-7A6.72,6.72,0,0,1,130.32,439.48Z"/><path class="cls-1" d="M278.32,481.08a6.71,6.71,0,1,1,6.41-7A6.72,6.72,0,0,1,278.32,481.08Z"/><path class="cls-1" d="M202.72,459.06a6.71,6.71,0,1,1,6.42-7A6.72,6.72,0,0,1,202.72,459.06Z"/><path class="cls-1" d="M60.13,421a6.71,6.71,0,1,1,6.42-7A6.7,6.7,0,0,1,60.13,421Z"/><path class="cls-1" d="M1900.72,766.18a6.72,6.72,0,1,1,6.41-7A6.72,6.72,0,0,1,1900.72,766.18Z"/><path class="cls-1" d="M1952.75,751.33a6.71,6.71,0,1,1,6.38-7A6.69,6.69,0,0,1,1952.75,751.33Z"/><path class="cls-1" d="M2046.42,727l14.8-9.45a10.64,10.64,0,0,0-14.8,9.45Z"/><path class="cls-1" d="M2004.53,739.78a6.71,6.71,0,1,1,6.43-7A6.71,6.71,0,0,1,2004.53,739.78Z"/><path class="cls-1" d="M356.78,506.39a6.71,6.71,0,1,1,6.41-7A6.72,6.72,0,0,1,356.78,506.39Z"/><path class="cls-1" d="M984.65,819.61a6.71,6.71,0,1,1,6.42-7A6.72,6.72,0,0,1,984.65,819.61Z"/><path class="cls-1" d="M1177.91,946.19a6.71,6.71,0,1,1,6.42-7A6.72,6.72,0,0,1,1177.91,946.19Z"/><path class="cls-1" d="M1082,884.82a6.71,6.71,0,1,1,6.42-7A6.7,6.7,0,0,1,1082,884.82Z"/><path class="cls-1" d="M1270.09,993.72a6.71,6.71,0,1,1,6.39-7A6.72,6.72,0,0,1,1270.09,993.72Z"/><path class="cls-1" d="M438.47,535.83a6.71,6.71,0,1,1,6.41-7A6.72,6.72,0,0,1,438.47,535.83Z"/><path class="cls-1" d="M1434.72,1023.3a6.71,6.71,0,1,1,6.4-7A6.71,6.71,0,0,1,1434.72,1023.3Z"/><path class="cls-1" d="M1355.82,1020a6.72,6.72,0,1,1,6.39-7A6.72,6.72,0,0,1,1355.82,1020Z"/><path class="cls-1" d="M611,609a6.71,6.71,0,1,1,6.41-7A6.73,6.73,0,0,1,611,609Z"/><circle class="cls-1" cx="887.96" cy="751.37" r="6.71"/><path class="cls-1" d="M523.3,570a6.71,6.71,0,1,1,6.41-7A6.72,6.72,0,0,1,523.3,570Z"/><path class="cls-1" d="M701.19,653.17a6.71,6.71,0,1,1,6.41-7A6.71,6.71,0,0,1,701.19,653.17Z"/><path class="cls-1" d="M793.74,702.71a6.71,6.71,0,1,1,6.42-7A6.72,6.72,0,0,1,793.74,702.71Z"/><path class="cls-1" d="M1237.48,904.21a6.71,6.71,0,1,1,6.42-7A6.75,6.75,0,0,1,1237.48,904.21Z"/><path class="cls-1" d="M1090.39,774.92a6.71,6.71,0,1,1,6.42-7A6.71,6.71,0,0,1,1090.39,774.92Z"/><path class="cls-1" d="M896,602.17a6.72,6.72,0,1,1,6.42-7A6.72,6.72,0,0,1,896,602.17Z"/><path class="cls-1" d="M685.27,438.44a6.71,6.71,0,1,1,6.4-7A6.71,6.71,0,0,1,685.27,438.44Z"/><path class="cls-1" d="M1430.75,974.58a6.71,6.71,0,1,1,6.42-7A6.71,6.71,0,0,1,1430.75,974.58Z"/><path class="cls-1" d="M2044,580.16a6.71,6.71,0,1,1,6.42-7A6.7,6.7,0,0,1,2044,580.16Z"/><path class="cls-1" d="M1785.82,585a6.71,6.71,0,1,1,6.41-7A6.71,6.71,0,0,1,1785.82,585Z"/><circle class="cls-1" cx="1877.1" cy="526.97" r="6.71"/><path class="cls-1" d="M1522.61,950.43a6.71,6.71,0,1,1,6.41-7A6.73,6.73,0,0,1,1522.61,950.43Z"/><path class="cls-1" d="M1963.89,546.05a6.71,6.71,0,1,1,6.41-7A6.72,6.72,0,0,1,1963.89,546.05Z"/><path class="cls-1" d="M779.72,566.77a6.71,6.71,0,1,1,6.42-7A6.7,6.7,0,0,1,779.72,566.77Z"/><path class="cls-1" d="M1424.64,989a6.72,6.72,0,1,1,6.4-7A6.74,6.74,0,0,1,1424.64,989Z"/><path class="cls-1" d="M1082.21,802.69a6.72,6.72,0,1,1,6.4-7A6.72,6.72,0,0,1,1082.21,802.69Z"/><path class="cls-1" d="M940.88,684.49a6.72,6.72,0,1,1,6.41-7A6.71,6.71,0,0,1,940.88,684.49Z"/><path class="cls-1" d="M1207.77,905.69a6.72,6.72,0,1,1,6.41-7A6.72,6.72,0,0,1,1207.77,905.69Z"/><path class="cls-1" d="M1320.11,971.1a6.72,6.72,0,1,1,6.4-7A6.71,6.71,0,0,1,1320.11,971.1Z"/><path class="cls-1" d="M1697.69,705.55a6.71,6.71,0,1,1,6.4-7A6.72,6.72,0,0,1,1697.69,705.55Z"/><path class="cls-1" d="M2125.07,605.32a6.71,6.71,0,1,1,6.41-7A6.71,6.71,0,0,1,2125.07,605.32Z"/><path class="cls-1" d="M2211.87,572.07a6.72,6.72,0,1,1,6.43-7A6.72,6.72,0,0,1,2211.87,572.07Z"/><path class="cls-1" d="M263,287.13a6.71,6.71,0,1,1,6.42-7A6.71,6.71,0,0,1,263,287.13Z"/><path class="cls-1" d="M100.92,178.85a6.72,6.72,0,1,1,6.39-7A6.72,6.72,0,0,1,100.92,178.85Z"/><path class="cls-1" d="M155.18,237.44a6.71,6.71,0,1,1,6.4-7A6.73,6.73,0,0,1,155.18,237.44Z"/><path class="cls-1" d="M261.09,101.72a6.71,6.71,0,1,1,6.4-7A6.73,6.73,0,0,1,261.09,101.72Z"/><path class="cls-1" d="M598.83,452.41a6.72,6.72,0,1,1,6.42-7A6.73,6.73,0,0,1,598.83,452.41Z"/><path class="cls-1" d="M417.17,355.31a6.71,6.71,0,1,1,6.41-7A6.7,6.7,0,0,1,417.17,355.31Z"/><circle class="cls-1" cx="1612.39" cy="842.3" r="6.71"/><path class="cls-1" d="M1464.14,979a6.71,6.71,0,1,1,6.4-7A6.72,6.72,0,0,1,1464.14,979Z"/><path class="cls-1" d="M1562.27,910a6.71,6.71,0,1,1,6.42-7A6.7,6.7,0,0,1,1562.27,910Z"/><path class="cls-1" d="M1360.72,982.07a6.71,6.71,0,1,1,6.42-7A6.71,6.71,0,0,1,1360.72,982.07Z"/><path class="cls-1" d="M1747.58,608.87a6.72,6.72,0,1,1,6.4-7A6.72,6.72,0,0,1,1747.58,608.87Z"/><path class="cls-1" d="M167.18,223.69a6.71,6.71,0,1,1,6.39-7A6.72,6.72,0,0,1,167.18,223.69Z"/><path class="cls-1" d="M1252.77,933.6a6.71,6.71,0,1,1,6.43-7A6.72,6.72,0,0,1,1252.77,933.6Z"/><path class="cls-1" d="M1851.64,517a6.71,6.71,0,1,1,6.4-7A6.72,6.72,0,0,1,1851.64,517Z"/><path class="cls-1" d="M557.84,411.94a6.7,6.7,0,1,1,6.42-7A6.71,6.71,0,0,1,557.84,411.94Z"/><path class="cls-1" d="M330.5,294.94a6.71,6.71,0,1,1,6.41-7A6.71,6.71,0,0,1,330.5,294.94Z"/><path class="cls-1" d="M979.5,706.75a6.71,6.71,0,1,1,6.42-7A6.7,6.7,0,0,1,979.5,706.75Z"/><path class="cls-1" d="M1130,838.72a6.72,6.72,0,1,1,6.42-7A6.72,6.72,0,0,1,1130,838.72Z"/><path class="cls-1" d="M788.54,560.16a6.7,6.7,0,1,1,6.39-7A6.71,6.71,0,0,1,788.54,560.16Z"/><path class="cls-1" d="M1654.4,768.9a6.71,6.71,0,1,1,6.43-7A6.7,6.7,0,0,1,1654.4,768.9Z"/><path class="cls-1" d="M1956,523.29a6.71,6.71,0,1,1,6.41-7A6.72,6.72,0,0,1,1956,523.29Z"/><path class="cls-1" d="M2196.56,538.41a6.71,6.71,0,1,1,6.38-7A6.72,6.72,0,0,1,2196.56,538.41Z"/><path class="cls-1" d="M2058.16,569.47a6.72,6.72,0,1,1,6.41-7A6.73,6.73,0,0,1,2058.16,569.47Z"/></svg>