<svg id="Layer_1" data-name="Layer 1" xmlns="http://www.w3.org/2000/svg" viewBox="0 0 22.29 21.74"><defs><style>.cls-1{fill:#4069b2;}</style></defs><path class="cls-1" d="M10.81,21.43a6.94,6.94,0,0,1-.8-.3A2.06,2.06,0,0,1,9,20H13.3a5,5,0,0,1-.34.57,2.21,2.21,0,0,1-1.38.86l-.11.05Z"/><path class="cls-1" d="M4.34,16a9.63,9.63,0,0,0,.24-2.56c.1-1.67.12-3.35.23-5a6.41,6.41,0,0,1,5-5.92A6,6,0,0,1,16,4.72a6.53,6.53,0,0,1,1.47,4c.09,2.19.18,4.39.29,6.58a4.49,4.49,0,0,0,.15.71Z"/><path class="cls-1" d="M11.13,19.36H3.38c-.35,0-.44-.08-.44-.45V18a1.36,1.36,0,0,1,1.34-1.34H18a1.35,1.35,0,0,1,1.34,1.33v1c0,.31-.09.39-.39.39H11.13Z"/><path class="cls-1" d="M21.23,9v.1c0,.25-.11.39-.31.4s-.29-.1-.31-.38a9.22,9.22,0,0,0-2-5.4c-.27-.35-.59-.65-.89-1a1.37,1.37,0,0,1-.16-.18A.3.3,0,0,1,18,2.17a2.68,2.68,0,0,1,.3.28A9.69,9.69,0,0,1,21.15,8.2c0,.27.06.55.09.82Z"/><path class="cls-1" d="M1.05,9a9.73,9.73,0,0,1,2-5.47c.33-.42.72-.81,1.08-1.21l.09-.08a.38.38,0,0,1,.49,0,.34.34,0,0,1-.06.45c-.29.3-.59.58-.85.9a9.16,9.16,0,0,0-2,4.57c-.06.34-.09.69-.12,1s-.12.35-.3.34-.28-.15-.28-.37Z"/><path class="cls-1" d="M19.58,8.46a1.2,1.2,0,0,1,0,.19c0,.16-.1.29-.29.29S19,8.83,19,8.65a8.69,8.69,0,0,0-.44-2.19,7.84,7.84,0,0,0-2-3.15l-.06-.06a.33.33,0,0,1-.06-.46c.14-.15.32-.14.5,0a8.31,8.31,0,0,1,2.32,3.89c.15.57.23,1.16.34,1.75Z"/><path class="cls-1" d="M2.7,8.47A8.44,8.44,0,0,1,5.32,2.81a.32.32,0,0,1,.49,0c.12.11.1.31-.06.47A7.6,7.6,0,0,0,4.47,4.81,8,8,0,0,0,3.28,8.55c0,.29-.12.4-.31.39s-.28-.14-.27-.42Z"/><path class="cls-1" d="M12.89,2A6.48,6.48,0,0,0,9.37,2,1.7,1.7,0,0,1,10.13.63,1.74,1.74,0,0,1,12,.58,1.63,1.63,0,0,1,12.89,2Z"/></svg>