<svg width="165" height="16" viewBox="0 0 165 16" fill="none" xmlns="http://www.w3.org/2000/svg">
<path d="M8.76 15.1C6.12 15.1 4.1 14.4933 2.7 13.28C1.3 12.0533 0.6 10.24 0.6 7.84C0.6 5.45333 1.3 3.64667 2.7 2.42C4.1 1.19333 6.12 0.586666 8.76 0.599999L15.96 0.639999V3.2H8.98C7.24667 3.2 5.96 3.56667 5.12 4.3C4.28 5.03333 3.86 6.21333 3.86 7.84C3.86 9.46667 4.28 10.6533 5.12 11.4C5.96 12.1333 7.24667 12.5 8.98 12.5H16.16V15.1H8.76ZM23.1378 15.1C21.3511 15.1 19.9578 14.66 18.9578 13.78C17.9578 12.8867 17.4578 11.58 17.4578 9.86C17.4578 8.12667 17.9578 6.82 18.9578 5.94C19.9578 5.04667 21.3511 4.6 23.1378 4.6H26.8378C28.6245 4.6 30.0178 5.04667 31.0178 5.94C32.0178 6.82 32.5178 8.12667 32.5178 9.86C32.5178 11.58 32.0178 12.8867 31.0178 13.78C30.0178 14.66 28.6245 15.1 26.8378 15.1H23.1378ZM23.1378 12.8H26.8378C27.7045 12.8 28.3645 12.56 28.8178 12.08C29.2845 11.6 29.5178 10.86 29.5178 9.86C29.5178 8.84667 29.2845 8.1 28.8178 7.62C28.3645 7.14 27.7045 6.9 26.8378 6.9H23.1378C22.2711 6.9 21.6045 7.14 21.1378 7.62C20.6845 8.1 20.4578 8.84667 20.4578 9.86C20.4578 10.86 20.6845 11.6 21.1378 12.08C21.6045 12.56 22.2711 12.8 23.1378 12.8ZM34.3227 15V4.7H43.3027C44.476 4.7 45.3293 4.99333 45.8627 5.58C46.4093 6.15333 46.6827 6.91333 46.6827 7.86V15H43.7827V8.2C43.7827 7.4 43.3827 7 42.5827 7H37.2227V15H34.3227ZM52.2158 15L47.8758 4.7H50.9158L54.2758 12.68H55.2758L58.6358 4.7H61.6758L57.3358 15H52.2158ZM68.0597 15.1C66.273 15.1 64.8797 14.66 63.8797 13.78C62.8797 12.8867 62.3797 11.58 62.3797 9.86C62.3797 8.12667 62.8797 6.82 63.8797 5.94C64.8797 5.04667 66.273 4.6 68.0597 4.6H73.0597C74.233 4.6 75.1264 4.88 75.7397 5.44C76.3664 5.98667 76.6797 6.77333 76.6797 7.8C76.6797 9.89333 75.473 10.94 73.0597 10.94H65.4997C65.7797 12.18 66.633 12.8 68.0597 12.8H76.1597V15.1H68.0597ZM68.0597 6.9C66.6864 6.9 65.8397 7.48 65.5197 8.64H72.9197C73.1864 8.64 73.393 8.56 73.5397 8.4C73.6997 8.24 73.7797 8.02 73.7797 7.74C73.7797 7.18 73.493 6.9 72.9197 6.9H68.0597ZM78.4828 15V4.7H86.3628C87.5228 4.7 88.3761 4.99333 88.9228 5.58C89.4695 6.15333 89.7428 6.91333 89.7428 7.86V10H86.8028V8.22C86.8028 7.42 86.4028 7.02 85.6028 7.02H81.4228V15H78.4828ZM96.6944 15C95.5344 15 94.681 14.7133 94.1344 14.14C93.5877 13.5533 93.3144 12.7867 93.3144 11.84V7H90.3344V4.7H93.3144V1.54H96.2144V4.7H100.494V7H96.2144V11.48C96.2144 12.2933 96.6144 12.7 97.4144 12.7H101.054V15H96.6944ZM102.845 15V0.699999H118.525V3.3H106.045V6.46H117.365V9.06H106.045V12.4H118.525V15H102.845ZM123.156 15C122.076 15 121.25 14.7267 120.676 14.18C120.103 13.6333 119.816 12.8533 119.816 11.84C119.816 10.84 120.103 10.0667 120.676 9.52C121.25 8.97333 122.076 8.7 123.156 8.7H130.836V8.22C130.836 7.40667 130.436 7 129.636 7H121.156V4.7H130.396C131.61 4.7 132.47 4.98 132.976 5.54C133.483 6.08667 133.736 6.86 133.736 7.86V15H123.156ZM123.676 12.7H130.836V11H123.676C123.423 11 123.223 11.08 123.076 11.24C122.943 11.3867 122.876 11.5867 122.876 11.84C122.876 12.0933 122.943 12.3 123.076 12.46C123.223 12.62 123.423 12.7 123.676 12.7ZM135.604 15.1V12.8H145.404C145.964 12.8 146.244 12.4867 146.244 11.86C146.244 11.2467 145.964 10.94 145.404 10.94H139.064C137.877 10.94 136.977 10.6733 136.364 10.14C135.75 9.59333 135.444 8.81333 135.444 7.8C135.444 6.77333 135.75 5.98667 136.364 5.44C136.99 4.88 137.89 4.6 139.064 4.6H148.184V6.9H139.204C138.63 6.9 138.344 7.18 138.344 7.74C138.344 8.02 138.424 8.24 138.584 8.4C138.744 8.56 138.95 8.64 139.204 8.64H145.924C146.964 8.64 147.757 8.91333 148.304 9.46C148.864 9.99333 149.144 10.7733 149.144 11.8C149.144 12.84 148.864 13.6533 148.304 14.24C147.744 14.8133 146.95 15.1 145.924 15.1H135.604ZM156.126 15.1C154.339 15.1 152.946 14.66 151.946 13.78C150.946 12.8867 150.446 11.58 150.446 9.86C150.446 8.12667 150.946 6.82 151.946 5.94C152.946 5.04667 154.339 4.6 156.126 4.6H161.126C162.299 4.6 163.193 4.88 163.806 5.44C164.433 5.98667 164.746 6.77333 164.746 7.8C164.746 9.89333 163.539 10.94 161.126 10.94H153.566C153.846 12.18 154.699 12.8 156.126 12.8H164.226V15.1H156.126ZM156.126 6.9C154.753 6.9 153.906 7.48 153.586 8.64H160.986C161.253 8.64 161.459 8.56 161.606 8.4C161.766 8.24 161.846 8.02 161.846 7.74C161.846 7.18 161.559 6.9 160.986 6.9H156.126Z" fill="#0745FF"/>
</svg>
