<svg id="Layer_1" data-name="Layer 1" xmlns="http://www.w3.org/2000/svg" viewBox="0 0 22.29 21.74"><defs><style>.cls-1{fill:#4069b2;}</style></defs><path class="cls-1" d="M12.72,10.06l5.41-7.38-1.54.24a.64.64,0,0,1-.84-.6.61.61,0,0,1,.51-.62c1-.16,2-.33,3.07-.47.55-.08.76.1.84.65q.24,1.44.45,2.88c.09.59-.32,1-.81.81A.63.63,0,0,1,19.39,5l-.21-1.41a1.26,1.26,0,0,0-.05-.16l-.19.24-5.5,7.49c-.34.47-.65.51-1.11.16L9.79,9.43l-.22-.15L8.7,10.34,2.83,17.52a.67.67,0,0,1-.8.27.61.61,0,0,1-.37-.67,1.14,1.14,0,0,1,.21-.41l5.69-7L8.88,8.15c.36-.44.65-.48,1.1-.14l2.48,1.87Z"/><path class="cls-1" d="M11.15,20.53H.93a.61.61,0,0,1-.56-.58.6.6,0,0,1,.48-.64,1.31,1.31,0,0,1,.34,0H21.1a1.2,1.2,0,0,1,.38.05.61.61,0,0,1-.09,1.19,2.17,2.17,0,0,1-.36,0Z"/></svg>