<svg id="Layer_1" data-name="Layer 1" xmlns="http://www.w3.org/2000/svg" viewBox="0 0 22.29 21.74"><defs><style>.cls-1{fill:#4069b2;}</style></defs><path class="cls-1" d="M12.2,15.81l-2.11,2.55-.72.86c-.13.17-.27.31-.49.26s-.3-.24-.36-.43C8,16.92,7.38,14.8,6.83,12.67A.93.93,0,0,0,6.26,12c-2-.91-3.94-1.85-5.91-2.78C.16,9.11,0,9,0,8.77s.18-.34.39-.42L21.63.59a.71.71,0,0,1,.43,0c.21.07.26.26.21.49-.48,2.19-.95,4.38-1.44,6.57q-1.3,5.9-2.62,11.79c-.1.45-.39.56-.76.29l-5.09-3.77Zm9-13.41-.05,0L10.76,13.74l6.77,5ZM1.47,8.82l.2.12,5.16,2.43c.16.08.24,0,.35-.07L17.65,3.55l1.62-1.19,0,0ZM18.66,3.87l0,0,0,0L7.64,12a.24.24,0,0,0-.09.31c.44,1.63.87,3.26,1.31,4.89a1.6,1.6,0,0,0,.08.2c.27-1.17.51-2.28.78-3.39a1.33,1.33,0,0,1,.31-.6c2.6-2.88,5.22-5.75,7.83-8.62ZM9.75,17.42l.05,0,1.75-2.12-1.13-.84Z"/><path class="cls-1" d="M6.32,13.5a2.32,2.32,0,0,1-.29.39C4.68,15.16,3.33,16.41,2,17.67l-1,1c-.23.22-.46.24-.63.07s-.15-.43.08-.65l5.11-4.74c.14-.14.3-.26.5-.15A1.79,1.79,0,0,1,6.32,13.5Z"/><path class="cls-1" d="M3.34,11.92a1.68,1.68,0,0,1-.21.34C2.32,13,1.5,13.67.68,14.37a.39.39,0,0,1-.58,0,.39.39,0,0,1,.06-.58L2.6,11.66a.36.36,0,0,1,.46-.07A1.87,1.87,0,0,1,3.34,11.92Z"/><path class="cls-1" d="M4.83,20.62c-.11-.11-.26-.19-.32-.31a.38.38,0,0,1,.11-.47L6,18.54l.69-.64a.42.42,0,0,1,.62,0,.41.41,0,0,1-.06.59l-2.1,1.94A1.45,1.45,0,0,1,4.83,20.62Z"/><path class="cls-1" d="M11.85,21.21a1.35,1.35,0,0,1-.33-.29.34.34,0,0,1,.07-.45l1.1-1.34.48-.58a.41.41,0,0,1,.59-.07.4.4,0,0,1,0,.58c-.53.65-1.06,1.29-1.6,1.93A1.43,1.43,0,0,1,11.85,21.21Z"/></svg>