<svg id="Layer_1" data-name="Layer 1" xmlns="http://www.w3.org/2000/svg" viewBox="0 0 22.29 21.74"><defs><style>.cls-1{fill:#fff;}</style></defs><path class="cls-1" d="M21.75,5.69c-.11.09-.2.23-.32.27-.31.12-.59-.11-.59-.47V1.18H16.53c-.36,0-.6-.29-.48-.59.05-.13.18-.21.28-.32h5.42Z"/><path class="cls-1" d="M6,.27c.1.11.23.19.28.32.12.3-.12.59-.48.59H1.48V5.47A.46.46,0,0,1,1.09,6,.45.45,0,0,1,.58,5.5c0-.77,0-1.55,0-2.33S.59,1.66.57.9A.67.67,0,0,1,.87.27Z"/><path class="cls-1" d="M21.75,21.15a.67.67,0,0,1-.63.29c-1.54,0-3.07,0-4.61,0a.45.45,0,0,1-.15-.89,1.06,1.06,0,0,1,.25,0h4.23V16.22c0-.36.28-.59.59-.47.12,0,.21.18.32.27Z"/><path class="cls-1" d="M5.68,13.46H8c.41,0,.58.17.58.58v4.58c0,.39-.16.56-.55.56H3.39c-.39,0-.55-.16-.56-.55,0-1.54,0-3.07,0-4.61,0-.39.17-.56.57-.56Zm2,.93H3.75v3.85H7.64Z"/><path class="cls-1" d="M13.77,5.38V3.08c0-.38.16-.55.53-.55H19c.37,0,.53.16.54.51,0,1.56,0,3.11,0,4.67a.47.47,0,0,1-.53.54H14.31c-.37,0-.54-.19-.54-.56Zm.92-1.92V7.32h3.89V3.46Z"/><path class="cls-1" d="M8.55,5.38V7.67c0,.4-.17.58-.58.58H3.39c-.38,0-.55-.17-.55-.54q0-2.33,0-4.65c0-.36.16-.53.53-.53L8,2.48A.48.48,0,0,1,8.55,3ZM7.63,7.32V3.44H3.77V7.32Z"/><path class="cls-1" d="M3.75,10.28v1.77a.45.45,0,0,1-.46.5.44.44,0,0,1-.45-.5c0-.72,0-1.45,0-2.17,0-.35.18-.51.55-.51H9.68V4.84c0-.36.24-.59.55-.52a.42.42,0,0,1,.35.38.13.13,0,0,1,0,.06V9.82c0,.31-.19.46-.54.46H3.75Z"/><path class="cls-1" d="M11.72,18.26V15.78l-.22,0H10.22a.47.47,0,0,1-.54-.53V12a.47.47,0,0,1,.46-.52c.27,0,.45.2.45.53v2.87h1.5c.38,0,.55.17.55.55v3.22c0,.38-.16.56-.53.56H10c-.33,0-.52-.18-.52-.46s.2-.45.53-.46Z"/><path class="cls-1" d="M1.48,20.53H5.79a.46.46,0,1,1,0,.91H1.08a.44.44,0,0,1-.5-.5V16.21A.44.44,0,0,1,1,15.72a.44.44,0,0,1,.46.49v4.32Z"/><path class="cls-1" d="M18.57,18.24V16.77a.45.45,0,0,1,.47-.5.4.4,0,0,1,.43.39c0,.71,0,1.41,0,2.12a.41.41,0,0,1-.37.39H14.42c-.52,0-.65-.14-.65-.65v-1.8a.46.46,0,0,1,.37-.46.44.44,0,0,1,.5.27.75.75,0,0,1,0,.26v1.44Z"/><path class="cls-1" d="M18.57,14.42V9.75a1.06,1.06,0,0,1,0-.25.46.46,0,0,1,.47-.38.46.46,0,0,1,.42.43,1.28,1.28,0,0,1,0,.19v5c0,.48-.15.62-.64.62H16.21c-.41,0-.63-.16-.62-.47s.22-.45.61-.45Z"/><path class="cls-1" d="M13.68,11.68h3.5a.46.46,0,0,1,.51.45.47.47,0,0,1-.51.46h-3.9a.46.46,0,0,1-.51-.52V9.93a.46.46,0,1,1,.91,0Z"/><path class="cls-1" d="M11.73,3.45H10A.46.46,0,0,1,9.48,3a.44.44,0,0,1,.46-.45c.75,0,1.49,0,2.23,0a.44.44,0,0,1,.47.49c0,.72,0,1.44,0,2.17a.46.46,0,1,1-.91,0V3.45Z"/><path class="cls-1" d="M12.64,6.61v.88h-.89V6.61Z"/><path class="cls-1" d="M17.44,10h-.88V9.13h.88Z"/><path class="cls-1" d="M4.89,11.44h.88v.89H4.89Z"/><path class="cls-1" d="M8.54,11.45v.88H7.66v-.88Z"/><path class="cls-1" d="M13.79,14.45h.87v.89h-.87Z"/></svg>