<svg id="Layer_1" data-name="Layer 1" xmlns="http://www.w3.org/2000/svg" viewBox="0 0 22.29 21.74"><defs><style>.cls-1{fill:#4069b2;}</style></defs><path class="cls-1" d="M3.87,16.74l1.21-.89A8.39,8.39,0,0,0,11,19.21a8.07,8.07,0,0,0,5.49-1.33A8.38,8.38,0,1,0,3.85,8.4l.73-.46L5.43,9.2,5,9.5,3.21,10.69A.8.8,0,0,1,2,10.45L.62,8.39l-.1-.16,1.27-.85.51.74a9.86,9.86,0,0,1,6-6.49,9.61,9.61,0,0,1,6.24-.28A9.91,9.91,0,1,1,3.87,16.74Z"/><path class="cls-1" d="M12.61,5.54V8.13c0,.59,0,1.18,0,1.76A1.24,1.24,0,0,0,13.07,11c.55.5,1.06,1.05,1.57,1.57l-1.07,1.07-.11-.1-2.09-2.09a.9.9,0,0,1-.29-.7V5.54Z"/></svg>